<svg width="14" height="14" viewBox="0 0 14 14" fill="none" xmlns="http://www.w3.org/2000/svg">
<path d="M6.09801 8.81037C5.84853 9.05986 5.43911 9.05986 5.18963 8.81037C3.9422 7.56294 3.9422 5.53507 5.18963 4.28764L8.5417 0.935572C9.78913 -0.311857 11.817 -0.311857 13.0644 0.935572C14.3119 2.183 14.3119 4.21088 13.0644 5.4583L12.1459 6.37687C11.8966 6.6261 11.4927 6.62644 11.243 6.37764C10.9935 6.12892 10.9927 5.72502 11.2412 5.47531L12.156 4.55632C12.9109 3.80786 12.9109 2.59242 12.156 1.84396C11.4076 1.0891 10.1921 1.0891 9.44368 1.84396L6.09801 5.18963C5.34316 5.93809 5.34316 7.15353 6.09801 7.90199C6.36029 8.15147 6.36029 8.56089 6.09801 8.81037ZM7.90199 5.18963C8.15147 4.94014 8.56089 4.94014 8.81037 5.18963C10.0578 6.43706 10.0578 8.46493 8.81037 9.71236L5.4583 13.0644C4.21088 14.3119 2.183 14.3119 0.935572 13.0644C-0.311857 11.817 -0.311857 9.78913 0.935572 8.5417L1.8513 7.62597C2.10085 7.37589 2.5059 7.37589 2.75572 7.62571C2.7558 7.62579 2.75589 7.62588 2.75572 7.62623L2.75622 7.62674C3.00553 7.87686 3.00541 8.2817 2.75596 8.53168L1.84396 9.44368C1.0891 10.1921 1.0891 11.4076 1.84396 12.156C2.59242 12.9109 3.80786 12.9109 4.55632 12.156L7.90199 8.81037C8.65684 8.06191 8.65684 6.84647 7.90199 6.09801C7.63971 5.84853 7.63971 5.43911 7.90199 5.18963Z" fill="#293440"/>
</svg>
