<svg viewBox="0 0 30 30">
    <path
        d="M19.664 0c-.24 0-.446.171-.49.408l-.22 1.176c-.058.305-.3.533-.604.596-.284.059-.564.132-.836.22-.295.096-.617.02-.819-.214l-.775-.907c-.157-.183-.422-.226-.63-.105l-.58.334c-.207.12-.302.372-.222.6l.397 1.126c.103.292.008.61-.223.817-.215.193-.418.396-.611.611-.207.231-.525.328-.817.225l-1.129-.399c-.227-.08-.477.014-.597.223l-.336.58c-.12.208-.075.474.107.63l.098.085c1.183.02 2.195.866 2.414 2.033l.06.318.21-.246c.459-.534 1.101-.824 1.765-.859C16.722 5.897 18.255 5 20 5c2.761 0 5 2.239 5 5 0 1.745-.897 3.278-2.252 4.172-.035.664-.325 1.307-.86 1.765l-.245.21.318.06c1.167.219 2.013 1.231 2.033 2.414l.084.098c.157.183.422.228.631.107l.58-.336c.208-.12.303-.37.223-.597l-.399-1.13c-.103-.291-.006-.609.225-.816.215-.193.418-.396.611-.611.207-.231.525-.326.817-.223l1.127.397c.227.08.48-.014.6-.223l.333-.58c.12-.208.077-.472-.105-.629l-.907-.777c-.235-.202-.31-.524-.214-.819.088-.272.161-.55.22-.834.063-.304.291-.545.596-.603l1.176-.223c.237-.04.408-.245.408-.486v-.672c0-.24-.171-.446-.408-.49l-1.176-.22c-.305-.058-.533-.3-.596-.604-.059-.284-.132-.564-.22-.836-.096-.295-.02-.617.214-.819l.907-.775c.183-.157.226-.422.105-.63l-.334-.58c-.12-.207-.372-.302-.6-.222l-1.126.397c-.292.103-.61.008-.817-.223-.193-.215-.396-.418-.611-.611-.231-.207-.328-.525-.225-.817l.399-1.129c.08-.227-.014-.477-.223-.597l-.58-.336c-.208-.12-.474-.075-.63.107l-.776.907c-.202.235-.524.31-.819.214-.272-.088-.552-.161-.836-.22-.304-.063-.545-.293-.603-.598l-.22-1.176C20.781.17 20.576 0 20.334 0h-.67zm-9 8c-.24 0-.446.17-.49.406l-.186.989c-.077.41-.404.713-.814.796-.341.07-.676.157-1.002.264-.396.13-.83.033-1.102-.283l-.65-.76c-.157-.182-.423-.225-.63-.105l-.58.334c-.208.12-.302.372-.222.6l.336.95c.138.394.007.818-.304 1.096-.257.23-.502.474-.73.73-.279.312-.703.443-1.097.305l-.953-.334c-.227-.08-.477.015-.597.223l-.336.578c-.121.21-.076.474.107.63l.76.651c.316.271.413.706.283 1.102-.107.326-.195.66-.264 1.002-.083.41-.386.737-.797.814l-.988.186c-.237.044-.408.25-.408.49v.672c0 .24.17.446.406.49l.989.186c.41.077.713.404.796.814.07.342.157.676.264 1.002.13.396.033.83-.283 1.102l-.76.65c-.182.157-.225.423-.105.63l.334.58c.12.208.372.302.6.222l.95-.336c.394-.138.818-.007 1.096.304.23.257.474.502.73.73.312.279.443.703.305 1.097l-.334.953c-.08.227.015.477.223.597l.578.336c.21.121.474.076.63-.107l.651-.76c.271-.316.706-.413 1.102-.283.326.107.66.195 1.002.264.41.083.737.386.814.797l.186.988c.044.237.25.408.49.408h.672c.24 0 .446-.171.488-.406l.186-.989c.077-.41.404-.713.814-.796.342-.07.676-.157 1.002-.264.396-.13.83-.033 1.102.283l.65.76c.157.182.421.227.629.107l.58-.336c.21-.12.303-.37.223-.597l-.334-.953c-.138-.394-.007-.818.304-1.096.257-.23.502-.474.73-.73.279-.312.704-.443 1.097-.305l.953.334c.227.08.477-.015.597-.223l.336-.578c.121-.21.076-.474-.107-.63l-.76-.651c-.316-.271-.413-.706-.283-1.102.107-.326.195-.66.264-1.002.083-.41.386-.737.797-.814l.988-.186c.237-.044.408-.25.408-.49v-.672c0-.24-.171-.445-.406-.488l-.989-.186c-.41-.077-.713-.406-.796-.816-.07-.341-.157-.676-.264-1.002-.13-.396-.033-.829.283-1.1l.76-.65c.182-.157.227-.423.107-.631l-.336-.58c-.12-.21-.37-.303-.597-.223l-.953.336c-.394.138-.818.007-1.096-.304-.23-.257-.474-.502-.73-.73-.312-.279-.443-.703-.305-1.097l.334-.953c.08-.227-.015-.477-.223-.597l-.578-.336c-.21-.121-.474-.076-.63.107l-.651.76c-.271.316-.706.413-1.102.283-.326-.107-.66-.195-1.002-.264-.41-.083-.737-.386-.814-.797l-.186-.988c-.044-.237-.25-.408-.49-.408h-.672zM20 9c-.552 0-1 .448-1 1s.448 1 1 1 1-.448 1-1-.448-1-1-1zm-9 4c3.314 0 6 2.686 6 6s-2.686 6-6 6-6-2.686-6-6 2.686-6 6-6zm0 4c-1.105 0-2 .895-2 2s.895 2 2 2 2-.895 2-2-.895-2-2-2z"
    />
</svg>
