<svg viewBox="0 0 20 20">
    <path
        d="M1.818 0C.814 0 0 .778 0 1.74v3.477h20V1.74C20 .78 19.186 0 18.182 0H1.818zM10 1.74c.502 0 .91.389.91.869s-.408.87-.91.87-.91-.39-.91-.87.408-.87.91-.87zM0 6.956v5.217h20V6.957H0zm10 1.739c.502 0 .91.39.91.87s-.408.869-.91.869-.91-.39-.91-.87.408-.87.91-.87zM0 13.913v4.348C0 19.22.814 20 1.818 20h1.818v-.87h12.728V20h1.818C19.186 20 20 19.222 20 18.26v-4.347H0zm10 1.74c.502 0 .91.389.91.869s-.408.87-.91.87-.91-.39-.91-.87.408-.87.91-.87z"
    />
</svg>
