<svg viewBox="0 0 32 32">
<path d="M5.77355 7.69131C5.76667 7.8163 5.7548 7.95379 5.7548 8.07252C5.7548 15.0276 5.7548 21.9851 5.7548 28.9451C5.7548 30.6649 7.09465 31.9992 8.8207 31.9998C13.3664 32.0006 17.9099 31.999 22.451 31.9948C22.7184 31.9948 22.9847 31.9618 23.2441 31.8967C24.6751 31.5317 25.5332 30.3487 25.5344 28.7327C25.5403 21.8385 25.5432 14.9415 25.5432 8.0419C25.5432 7.92629 25.5332 7.8163 25.5282 7.69131H5.77355Z" />
<path d="M23.6509 2.92623C18.3161 2.9179 12.9811 2.9179 7.64583 2.92623C6.84742 2.91474 6.0696 3.17968 5.44421 3.67615C4.51557 4.41044 4.02937 5.37908 4 6.56644H27.2474C27.2632 6.52773 27.2744 6.48723 27.2805 6.44583C27.2217 4.5098 25.5994 2.92873 23.6509 2.92623Z" />
<path d="M19.3889 1.81698C19.4189 0.879587 18.7077 0.0540563 17.7959 0.0290592C16.3611 -0.0096864 14.9254 -0.0096864 13.4889 0.0290592C12.5596 0.0521816 11.8204 0.94208 11.9003 1.81698H19.3889Z" />
</svg>
