<svg width="24" height="24" viewBox="0 0 24 24" fill="none" xmlns="http://www.w3.org/2000/svg">
<path fill-rule="evenodd" clip-rule="evenodd" d="M8 0.25C8.41421 0.25 8.75 0.585786 8.75 1V3H11.25V1C11.25 0.585786 11.5858 0.25 12 0.25C12.4142 0.25 12.75 0.585786 12.75 1V3H15.25V1C15.25 0.585786 15.5858 0.25 16 0.25C16.4142 0.25 16.75 0.585786 16.75 1V3.01678C19.3012 3.18792 20.894 4.66349 20.9949 7.25L23 7.25C23.4142 7.25 23.75 7.58579 23.75 8C23.75 8.41421 23.4142 8.75 23 8.75L21 8.75V11.25L23 11.25C23.4142 11.25 23.75 11.5858 23.75 12C23.75 12.4142 23.4142 12.75 23 12.75L21 12.75V15.25L23 15.25C23.4142 15.25 23.75 15.5858 23.75 16C23.75 16.4142 23.4142 16.75 23 16.75H20.9936C20.8816 19.3282 19.2928 20.8077 16.75 20.9825V23C16.75 23.4142 16.4142 23.75 16 23.75C15.5858 23.75 15.25 23.4142 15.25 23V21H12.75V23C12.75 23.4142 12.4142 23.75 12 23.75C11.5858 23.75 11.25 23.4142 11.25 23V21H8.75V23C8.75 23.4142 8.41421 23.75 8 23.75C7.58579 23.75 7.25 23.4142 7.25 23L7.25 20.9821C4.73697 20.8054 3.14728 19.3257 3.00972 16.75H1C0.585786 16.75 0.25 16.4142 0.25 16C0.25 15.5858 0.585787 15.25 1 15.25H3V12.75L1 12.75C0.585786 12.75 0.25 12.4142 0.25 12C0.25 11.5858 0.585787 11.25 1 11.25H3V8.75L1 8.75C0.585786 8.75 0.25 8.41421 0.25 8C0.25 7.58579 0.585787 7.25 1 7.25L3.00599 7.25C3.11517 4.66711 4.71151 3.19205 7.25 3.01751V1C7.25 0.585786 7.58579 0.25 8 0.25ZM9.65054 6C8.66056 6 7.72686 6.2708 7.03288 6.91542C6.32793 7.57024 6 8.49027 6 9.52053V14.4333C6 15.4715 6.32468 16.4005 7.02583 17.0645C7.7188 17.7208 8.65474 18 9.65054 18H14.3494C15.3427 18 16.2772 17.7275 16.9706 17.0805C17.6744 16.4239 18 15.503 18 14.4743V9.52209V9.52053H17L18 9.52369L18 9.52209C18.0029 8.49325 17.6788 7.57241 16.9746 6.91638C16.281 6.27035 15.3462 6 14.3546 6H9.65054ZM8 9.52053C8 8.91835 8.18159 8.57811 8.39403 8.38078C8.61745 8.17325 9.00902 8 9.65054 8H14.3546C14.9996 8 15.3901 8.17369 15.6114 8.37982C15.8215 8.57561 16.0019 8.91442 16 9.51738L16 9.52053V14.4743C16 15.0781 15.8186 15.42 15.6063 15.6182C15.3836 15.8259 14.9928 16 14.3494 16H9.65054C9.01484 16 8.6255 15.8249 8.40109 15.6124C8.18484 15.4076 8 15.0532 8 14.4333V9.52053Z" fill="#1D68D9"/>
</svg>
