<svg width="449" height="57" viewBox="0 0 449 57" fill="none" xmlns="http://www.w3.org/2000/svg">
    <g>
        <path d="M5.88759 0H53.0124C56.25 0 58.9 2.56421 58.9 5.6972V51.2981C58.9 54.4358 56.25 57 53.0124 57H5.88759C2.6499 57 0 54.4358 0 51.2981V5.6972C0 2.56421 2.6499 0 5.88759 0Z" fill="#AF272F"/>
        <path d="M54.2056 22.4051C47.5423 22.4283 43.3603 22.4238 42.1028 22.4051C39.7564 22.3678 37.3956 20.6894 37.3475 18.4236C37.3202 18.2619 37.3212 18.1699 37.3226 18.0377C37.3229 18.006 37.3233 17.9719 37.3233 17.9341C37.335 11.7598 37.331 7.66196 37.329 5.6405L37.329 5.63929C37.3285 5.15804 37.3282 4.79457 37.3282 4.54889C37.3282 3.53719 38.258 3.06165 39.2553 3.01037C40.2863 2.96375 41.3945 3.37401 41.3945 4.51159V15.1227C41.3945 16.7405 42.4785 17.99 44.0156 18.2324C44.1986 18.2604 44.3479 18.2651 44.531 18.2651H54.3501C55.4776 18.2791 55.9882 19.2627 55.9882 20.2745C55.9882 21.3188 55.4341 22.3911 54.2056 22.4051Z" fill="white"/>
        <path d="M46.8399 15.5658C46.8206 15.5658 46.7868 15.5611 46.7435 15.5518C44.8355 15.3886 43.6214 14.0226 43.6793 11.8967V11.7241L43.6841 10.2976L43.6793 10.1344C43.6841 8.18167 43.6841 6.96038 43.6841 6.1864V6.07359C43.6841 6.01963 43.6823 5.96351 43.6805 5.90681C43.6763 5.77735 43.6721 5.64482 43.6889 5.52811C43.6937 4.85675 43.6985 4.78216 43.7081 4.63763C43.8142 2.62357 47.6155 2.30187 47.683 4.92669C47.7553 7.5515 47.7312 8.93151 47.7312 8.93151C47.7312 8.93151 47.7457 9.15063 47.7457 9.37908C47.736 9.96185 47.8564 10.9968 49.0609 11.547C49.4825 11.7392 50.095 11.74 50.8124 11.741C50.9478 11.7411 51.0869 11.7413 51.2291 11.7428C51.5551 11.7455 51.9971 11.7435 52.4768 11.7413C52.8266 11.7398 53.1965 11.7381 53.5561 11.7381C53.6258 11.7381 53.6977 11.7371 53.7709 11.7361C54.1789 11.7306 54.6287 11.7245 54.9678 11.8827C55.5652 12.1624 55.9411 12.7731 55.9988 13.3513C56.1242 14.5541 55.517 15.5705 54.3655 15.5705L53.5513 15.5751C51.3061 15.5751 49.1333 15.5751 46.9073 15.5705C46.8953 15.5705 46.8844 15.5693 46.8736 15.5681C46.8628 15.567 46.8519 15.5658 46.8399 15.5658Z" fill="white"/>
        <path d="M31.602 27.0955C32.1031 27.7249 32.6861 28.1865 33.269 28.5175C34.4012 29.2121 35.7696 29.6224 37.2969 29.6224L54.2273 29.6318C55.1427 29.6271 55.7112 28.9045 55.8991 28.042C55.9521 27.8555 55.9762 27.6456 55.9858 27.4125C55.9955 27.1095 55.9569 26.8577 55.8798 26.6433C55.6968 25.9113 55.2149 25.3099 54.4344 25.212C53.9212 25.1342 52.1143 25.1413 48.8445 25.1543C46.4352 25.1638 43.2317 25.1765 39.1662 25.1607C36.473 25.1654 34.4831 22.5126 34.4831 19.8411V4.71233C34.4831 3.65867 33.6159 3.03861 32.2331 3.01529C31.2695 3.02462 30.0024 3.49084 30.012 4.58645L29.9639 22.6618C29.959 24.3168 30.5613 25.874 31.602 27.0955Z" fill="white"/>
        <path d="M27.1546 30.0292C26.6536 29.3998 26.0706 28.9382 25.4876 28.6073C24.3554 27.9125 22.9871 27.5023 21.4597 27.5023L4.52933 27.4929C3.61392 27.4976 3.0454 28.2202 2.85749 29.0828C2.80932 29.2692 2.7804 29.4791 2.77559 29.7122C2.76595 30.0105 2.80449 30.2669 2.87676 30.4814C3.06466 31.2133 3.54165 31.8148 4.32698 31.9127C4.83738 31.9905 6.64297 31.9834 9.912 31.9704C12.321 31.9609 15.5247 31.9482 19.5903 31.964C22.2836 31.9593 24.2783 34.6122 24.2783 37.2836V52.4124C24.2783 53.466 25.1407 54.0861 26.5235 54.1094C27.487 54.1001 28.7542 53.6339 28.7494 52.5382L28.7927 34.4629C28.7975 32.8079 28.2002 31.2507 27.1546 30.0292Z" fill="white"/>
        <path d="M4.54685 34.7193C11.2101 34.696 15.3922 34.7006 16.6497 34.7193C19.0009 34.7567 21.3569 36.435 21.405 38.7008C21.4322 38.8586 21.4312 38.9528 21.4298 39.0859C21.4294 39.1179 21.4291 39.1524 21.4291 39.1904C21.4174 45.3596 21.4214 49.4558 21.4234 51.479L21.4235 51.4854C21.4239 51.9665 21.4243 52.3299 21.4243 52.5756C21.4243 53.5872 20.4992 54.0627 19.4971 54.1141C18.466 54.1607 17.3579 53.7504 17.3579 52.6081V42.0017C17.3579 40.3792 16.2738 39.1344 14.7369 38.892C14.5538 38.864 14.4044 38.8593 14.2213 38.8593H4.40231C3.27489 38.8453 2.76901 37.8616 2.76901 36.85C2.76901 35.8056 3.31826 34.7333 4.54685 34.7193Z" fill="white"/>
        <path d="M11.915 41.5588C11.9342 41.5588 11.9679 41.5635 12.0113 41.5728C13.9192 41.7313 15.1333 43.102 15.0755 45.228V45.4004L15.0707 46.8271L15.0755 46.9903C15.0755 48.1886 15.0737 49.1114 15.0723 49.8245C15.0714 50.2735 15.0707 50.6402 15.0707 50.9391V51.051C15.0707 51.1031 15.0725 51.1581 15.0743 51.2142C15.0784 51.3439 15.0827 51.4793 15.0659 51.5965C15.0616 52.1951 15.0573 52.3193 15.053 52.4416L15.0514 52.4869C14.9407 54.5011 11.1392 54.8228 11.0718 52.1979C10.9995 49.5731 11.0236 48.1931 11.0236 48.1931C11.0236 48.1931 11.0092 47.974 11.014 47.7456C11.0188 47.1628 10.9031 46.1278 9.69867 45.5776C9.27327 45.3855 8.66049 45.3846 7.94342 45.3836C7.80787 45.3835 7.66819 45.3833 7.52575 45.3818C7.20348 45.3791 6.76266 45.3811 6.28366 45.3832H6.28265C5.93126 45.3848 5.55936 45.3865 5.19866 45.3865C5.12909 45.3865 5.05739 45.3874 4.98442 45.3884C4.57745 45.3939 4.13004 45.4 3.78699 45.2419C3.18956 44.9622 2.81857 44.3514 2.75594 43.7734C2.63067 42.5705 3.23773 41.5542 4.38924 41.5495H5.20348C7.44866 41.5495 9.6264 41.5495 11.8475 41.5542C11.8595 41.5542 11.8703 41.5553 11.8812 41.5565C11.892 41.5576 11.9029 41.5588 11.915 41.5588Z" fill="white"/>
    <g/>

    <g>
        <path d="M96.7459 28.4374H97.9458C102.362 28.4374 105.658 28.167 107.834 27.6261C110.042 27.0852 111.529 26.2262 112.297 25.0491C113.065 23.8719 113.449 22.1061 113.449 19.7518V18.3201H107.402V18.9405C107.402 19.7677 107.338 20.4199 107.21 20.8972C107.082 21.3426 106.842 21.7562 106.49 22.138C106.17 22.4879 105.626 22.7424 104.858 22.9015C104.122 23.0606 103.21 23.1879 102.122 23.2833C101.034 23.3469 99.5778 23.3787 97.7538 23.3787H96.9379C95.1459 23.3787 93.7379 23.3628 92.7139 23.331C91.69 23.2674 90.714 23.1242 89.786 22.9015C88.89 22.6788 88.25 22.4084 87.866 22.0902C87.482 21.7721 87.13 21.263 86.81 20.5631C86.5221 19.8632 86.3461 19.0996 86.2821 18.2724C86.2181 17.4452 86.1861 16.3158 86.1861 14.8841V14.4068C86.1861 12.9751 86.2181 11.8457 86.2821 11.0185C86.3461 10.1913 86.5221 9.4277 86.81 8.7278C87.13 7.99605 87.482 7.4711 87.866 7.15295C88.25 6.83479 88.89 6.56435 89.786 6.34166C90.714 6.08712 91.69 5.94396 92.7139 5.91215C93.7379 5.84852 95.1459 5.8167 96.9379 5.8167H97.7538C100.634 5.8167 102.714 5.94396 103.994 6.19849C105.274 6.42119 106.106 6.80298 106.49 7.34384C106.874 7.85288 107.066 8.7278 107.066 9.9686V10.6844H113.161V9.4436C113.161 7.94833 113.049 6.75525 112.825 5.86443C112.601 4.94178 112.201 4.13049 111.625 3.43056C111.05 2.6988 110.154 2.17385 108.938 1.8557C107.754 1.50573 106.298 1.25121 104.57 1.09213C102.874 0.933046 100.666 0.853516 97.9458 0.853516H96.7459C94.1539 0.853516 92.042 0.917146 90.41 1.04441C88.778 1.13985 87.274 1.37847 85.8981 1.76025C84.5541 2.14204 83.5301 2.61927 82.8261 3.19194C82.1221 3.7328 81.5301 4.54409 81.0502 5.62581C80.5702 6.70753 80.2502 7.90061 80.0902 9.205C79.9622 10.5095 79.8982 12.1957 79.8982 14.2637V15.0272C79.8982 17.0634 79.9622 18.7496 80.0902 20.0859C80.2502 21.3903 80.5702 22.5834 81.0502 23.6651C81.5621 24.715 82.1701 25.5263 82.8741 26.099C83.6101 26.6716 84.6501 27.1489 85.9941 27.5306C87.338 27.9124 88.826 28.151 90.458 28.2465C92.09 28.3738 94.1859 28.4374 96.7459 28.4374Z" fill="#293440"/>
        <path d="M153.616 28.1033L138.593 1.18762H131.105L115.937 28.1033H122.753L125.585 22.8061H143.729L146.561 28.1033H153.616ZM141.377 18.2247H128.081C128.625 17.2066 129.649 15.2818 131.153 12.4502C132.657 9.61864 133.857 7.40751 134.753 5.81674C138.305 12.4661 140.513 16.6021 141.377 18.2247Z" fill="#293440"/>
        <path d="M187.891 23.5219V28.1033H181.603V25.3354C181.603 23.9355 181.523 22.9015 181.363 22.2334C181.235 21.5335 180.867 20.9449 180.259 20.4676C179.651 19.9904 178.851 19.7041 177.859 19.6086C176.899 19.4814 175.459 19.4177 173.539 19.4177H163.027V28.1033H156.739V1.18762H177.139C181.459 1.18762 184.339 1.72848 185.779 2.8102C187.219 3.89192 187.939 6.02354 187.939 9.20504V10.2072C187.939 12.1798 187.587 13.691 186.883 14.7409C186.179 15.759 185.091 16.4748 183.619 16.8884C185.315 17.2384 186.451 17.8588 187.027 18.7496C187.603 19.6086 187.891 21.1994 187.891 23.5219ZM163.027 14.6932H175.267C177.827 14.6932 179.507 14.4227 180.307 13.8819C181.139 13.341 181.555 12.2911 181.555 10.7322V10.1595C181.555 8.34604 181.171 7.20071 180.403 6.72348C179.635 6.24625 177.811 6.00763 174.931 6.00763H163.027V14.6932Z" fill="#293440"/>
        <path d="M228.332 15.0272V14.2637C228.332 12.7365 228.3 11.448 228.236 10.3981C228.172 9.31644 228.012 8.29834 227.756 7.34388C227.532 6.38942 227.244 5.62585 226.892 5.05318C226.572 4.44868 226.092 3.90782 225.452 3.4306C224.812 2.92155 224.108 2.53977 223.34 2.28525C222.572 2.03072 221.564 1.80802 220.316 1.61712C219.1 1.42623 217.82 1.31488 216.476 1.28306C215.132 1.21943 213.468 1.18762 211.484 1.18762H193.724V28.1033H211.484C214.108 28.1033 216.252 28.0556 217.916 27.9601C219.58 27.8329 221.084 27.5784 222.428 27.1966C223.772 26.8148 224.796 26.3535 225.5 25.8126C226.204 25.2718 226.78 24.4764 227.228 23.4265C227.708 22.3766 228.012 21.2153 228.14 19.9427C228.268 18.6701 228.332 17.0316 228.332 15.0272ZM211.004 23.0447H200.012V6.1508H211.004C212.828 6.1508 214.268 6.18262 215.324 6.24625C216.412 6.27806 217.404 6.42123 218.3 6.67576C219.228 6.89846 219.9 7.16889 220.316 7.48705C220.732 7.77338 221.084 8.26654 221.372 8.96644C221.66 9.63454 221.836 10.3663 221.9 11.1617C221.964 11.9252 221.996 12.9911 221.996 14.3591V14.8363C221.996 16.1726 221.964 17.2225 221.9 17.9861C221.868 18.7496 221.708 19.4814 221.42 20.1813C221.132 20.8812 220.78 21.3903 220.364 21.7084C219.948 21.9948 219.292 22.2652 218.396 22.5197C217.5 22.7743 216.492 22.9333 215.372 22.997C214.284 23.0288 212.828 23.0447 211.004 23.0447Z" fill="#293440"/>
        <path d="M268.456 14.2637V15.0272C268.456 17.0316 268.392 18.6701 268.264 19.9427C268.136 21.2153 267.832 22.3766 267.352 23.4265C266.904 24.4764 266.328 25.2718 265.624 25.8126C264.92 26.3535 263.896 26.8148 262.552 27.1966C261.208 27.5784 259.704 27.8329 258.04 27.9601C256.376 28.0556 254.232 28.1033 251.608 28.1033H233.849V1.18762H251.608C253.592 1.18762 255.256 1.21943 256.6 1.28306C257.944 1.31488 259.224 1.42623 260.44 1.61712C261.688 1.80802 262.696 2.03072 263.464 2.28525C264.232 2.53977 264.936 2.92155 265.576 3.4306C266.216 3.90782 266.696 4.44868 267.016 5.05318C267.368 5.62585 267.656 6.38942 267.88 7.34388C268.136 8.29834 268.296 9.31644 268.36 10.3981C268.424 11.448 268.456 12.7365 268.456 14.2637ZM240.136 23.0447H251.128C252.952 23.0447 254.408 23.0288 255.496 22.997C256.616 22.9333 257.624 22.7743 258.52 22.5197C259.416 22.2652 260.072 21.9948 260.488 21.7084C260.904 21.3903 261.256 20.8812 261.544 20.1813C261.832 19.4814 261.992 18.7496 262.024 17.9861C262.088 17.2225 262.12 16.1726 262.12 14.8363V14.3591C262.12 12.9911 262.088 11.9252 262.024 11.1617C261.96 10.3663 261.784 9.63454 261.496 8.96644C261.208 8.26654 260.856 7.77338 260.44 7.48705C260.024 7.16889 259.352 6.89846 258.424 6.67576C257.528 6.42123 256.536 6.27806 255.448 6.24625C254.392 6.18262 252.952 6.1508 251.128 6.1508H240.136V23.0447Z" fill="#293440"/>
        <path d="M302.196 28.1033V23.0924H280.213V16.7453H300.804V11.973H280.213V6.05536H301.908V1.18762H273.925V28.1033H302.196Z" fill="#293440"/>
        <path d="M327.189 14.3591L341.157 28.1033H332.901L322.437 17.4611L311.877 28.1033H303.621L317.637 14.4068L304.773 1.18762H312.741L322.437 11.1617L332.133 1.18762H340.053L327.189 14.3591Z" fill="#293440"/>
        <path d="M362.148 28.1033V1.18762H355.812V28.1033H362.148Z" fill="#293440"/>
        <path d="M410.435 1.18762V28.1033H404.243L404.099 7.29615L397.907 17.7474C395.155 22.3607 393.091 25.8126 391.715 28.1033H386.771L374.147 7.24843V28.1033H367.955V1.18762H377.219L389.411 21.3744L401.315 1.18762H410.435Z" fill="#293440"/>
        <path d="M448 20.229V19.9427C448 18.7337 447.936 17.7474 447.808 16.9839C447.712 16.2203 447.456 15.5204 447.04 14.8841C446.624 14.2159 446.096 13.7228 445.456 13.4047C444.848 13.0865 443.936 12.8002 442.72 12.5456C441.504 12.2911 440.144 12.132 438.64 12.0684C437.136 12.0048 435.2 11.973 432.832 11.973C429.664 11.973 427.408 11.8934 426.064 11.7343C424.72 11.5435 423.856 11.273 423.472 10.9231C423.12 10.5731 422.944 9.9527 422.944 9.0619V8.7755C422.944 7.82107 423.136 7.13704 423.52 6.72344C423.936 6.30984 424.736 6.0235 425.92 5.86443C427.136 5.67353 429.12 5.57809 431.872 5.57809H432.88C436.368 5.57809 438.576 5.80079 439.504 6.24621C440.464 6.69162 440.944 7.66199 440.944 9.1573V9.8254H447.184V8.871C447.184 7.50291 447.088 6.40529 446.896 5.57809C446.704 4.75089 446.32 4.00323 445.744 3.33511C445.2 2.63517 444.352 2.12613 443.2 1.80798C442.048 1.48982 440.592 1.25121 438.832 1.09213C437.072 0.933046 434.8 0.853516 432.016 0.853516H430.672C426.672 0.853516 423.712 1.07622 421.792 1.52164C419.872 1.96705 418.545 2.73062 417.809 3.81234C417.105 4.86225 416.753 6.51664 416.753 8.7755V9.1096C416.753 10.5095 416.849 11.6071 417.041 12.4025C417.233 13.166 417.585 13.8819 418.097 14.55C418.641 15.1863 419.505 15.6476 420.689 15.934C421.904 16.2203 423.392 16.443 425.152 16.6021C426.944 16.7293 429.312 16.793 432.256 16.793C435.264 16.793 437.408 16.8884 438.688 17.0793C440 17.2702 440.848 17.5725 441.232 17.9861C441.616 18.3997 441.808 19.1155 441.808 20.1336V20.4199C441.808 21.3426 441.6 22.0107 441.184 22.4243C440.8 22.8379 439.952 23.1401 438.64 23.331C437.36 23.5219 435.328 23.6174 432.544 23.6174H431.536C427.6 23.6174 425.12 23.4265 424.096 23.0447C423.072 22.6311 422.56 21.6289 422.56 20.0381V19.1791H416.321V20.229C416.321 21.5016 416.369 22.5197 416.465 23.2833C416.593 24.0469 416.849 24.7627 417.233 25.4308C417.649 26.099 418.177 26.608 418.817 26.958C419.457 27.3079 420.384 27.6102 421.6 27.8647C422.848 28.0874 424.256 28.2306 425.824 28.2942C427.424 28.3897 429.456 28.4374 431.92 28.4374H433.168C437.456 28.4374 440.624 28.1988 442.672 27.7215C444.752 27.2443 446.16 26.4648 446.896 25.3831C447.632 24.2696 448 22.5515 448 20.229Z" fill="#293440"/>
        <path d="M82.2981 43.4878V53H80.4817V43.4878H82.2981Z" fill="#293440"/>
        <path d="M82.2981 39.5682V41.5519H80.4817V39.5682H82.2981Z" fill="#293440"/>
        <path d="M96.9769 47.4792V53.0001H95.1605V47.8616C95.1605 46.587 94.9375 45.7664 94.4913 45.3999C94.0611 45.0175 93.0733 44.8263 91.5277 44.8263H91.2648C89.7671 44.8263 88.6996 45.0414 88.0622 45.4716C87.4408 45.9018 87.1301 46.6985 87.1301 47.8616V53.0001H85.3137V43.4879H87.1779V45.0653C87.9109 43.9022 89.4086 43.3206 91.6711 43.3206H91.9818C93.9894 43.3206 95.3199 43.5995 95.9731 44.1571C96.6423 44.6989 96.9769 45.8062 96.9769 47.4792Z" fill="#293440"/>
        <path d="M104.439 53.1674H104.893C106.518 53.1674 107.617 52.9283 108.191 52.4503C108.765 51.9564 109.051 51.0403 109.051 49.7019V48.6502H107.426V49.4389C107.426 50.3791 107.291 50.9925 107.02 51.2793C106.749 51.5502 106.104 51.6856 105.084 51.6856H104.726C103.77 51.6856 103.156 51.5262 102.885 51.2076C102.63 50.873 102.503 50.0843 102.503 48.8414V44.8262H109.028V43.4879H102.503V41.05H100.663V43.4879H98.8223V44.8262H100.663V49.0565C100.663 50.7295 100.91 51.837 101.403 52.3787C101.913 52.9044 102.925 53.1674 104.439 53.1674Z" fill="#293440"/>
        <path d="M117.453 53.1674H116.951C115.294 53.1674 114.051 53.032 113.223 52.7611C112.41 52.4903 111.845 52.0282 111.526 51.3749C111.207 50.7057 111.048 49.694 111.048 48.3396V48.1006C111.048 46.1568 111.422 44.8741 112.171 44.2527C112.92 43.6313 114.442 43.3206 116.736 43.3206H117.214C118.76 43.3206 119.923 43.4561 120.704 43.7269C121.5 43.9819 122.042 44.3882 122.329 44.9458C122.632 45.4876 122.783 46.2922 122.783 47.3597V48.5547H112.841V48.6981C112.841 49.9728 113.088 50.8013 113.581 51.1837C114.091 51.5502 115.223 51.7334 116.975 51.7334H117.358C118.903 51.7334 119.915 51.6139 120.393 51.3749C120.871 51.12 121.11 50.6261 121.11 49.8931V49.6541H122.855V49.9409C122.855 51.1837 122.464 52.0362 121.684 52.4982C120.903 52.9444 119.493 53.1674 117.453 53.1674ZM112.864 47.2641H121.014V47.0251C121.014 46.3878 120.927 45.9178 120.751 45.615C120.592 45.3123 120.242 45.0892 119.7 44.9458C119.158 44.7865 118.314 44.7068 117.166 44.7068H116.88C115.175 44.7068 114.083 44.8582 113.605 45.1609C113.143 45.4637 112.896 46.1647 112.864 47.2641Z" fill="#293440"/>
        <path d="M127.321 53V39.5682H125.504V53H127.321Z" fill="#293440"/>
        <path d="M132.129 39.5682V53H130.312V39.5682H132.129Z" fill="#293440"/>
        <path d="M136.937 53V43.4878H135.12V53H136.937Z" fill="#293440"/>
        <path d="M136.937 41.5519V39.5682H135.12V41.5519H136.937Z" fill="#293440"/>
        <path d="M145.569 56.4895H145.019C142.948 56.4895 141.546 56.3063 140.813 55.9398C140.096 55.5734 139.737 54.7926 139.737 53.5976V53.2869H141.554V53.5259C141.554 54.1155 141.769 54.5058 142.199 54.697C142.645 54.8882 143.585 54.9838 145.019 54.9838H145.569C147.306 54.9838 148.421 54.7847 148.915 54.3863C149.425 53.988 149.696 53.1515 149.727 51.8768L149.68 50.8491C149.409 51.3909 148.939 51.7812 148.269 52.0202C147.616 52.2433 146.612 52.3548 145.258 52.3548H144.947C142.765 52.3548 141.315 52.076 140.598 51.5183C139.897 50.9447 139.546 49.7657 139.546 47.9811V47.7182C139.546 45.9178 139.897 44.7387 140.598 44.181C141.299 43.6074 142.733 43.3206 144.9 43.3206H145.21C146.517 43.3206 147.505 43.4322 148.174 43.6552C148.859 43.8624 149.385 44.2448 149.751 44.8024V43.4879H151.52V51.6856C151.52 52.7532 151.44 53.5817 151.281 54.1712C151.137 54.7767 150.827 55.2627 150.349 55.6291C149.871 55.9956 149.273 56.2266 148.556 56.3222C147.855 56.4338 146.859 56.4895 145.569 56.4895ZM145.234 50.8969H145.688C147.393 50.8969 148.493 50.7137 148.986 50.3472C149.48 49.9808 149.727 49.1761 149.727 47.9333V47.6943C149.727 46.4834 149.472 45.6947 148.963 45.3282C148.469 44.9618 147.377 44.7785 145.688 44.7785H145.234C143.577 44.7785 142.51 44.9538 142.032 45.3043C141.57 45.6549 141.338 46.4515 141.338 47.6943V47.9333C141.338 49.1921 141.57 50.0047 142.032 50.3711C142.494 50.7217 143.561 50.8969 145.234 50.8969Z" fill="#293440"/>
        <path d="M160.153 53.1674H160.655C162.695 53.1674 164.105 52.9444 164.886 52.4982C165.666 52.0362 166.057 51.1837 166.057 49.9409V49.6541H164.312V49.8931C164.312 50.6261 164.073 51.12 163.595 51.3749C163.117 51.6139 162.105 51.7334 160.56 51.7334H160.177C158.425 51.7334 157.293 51.5502 156.783 51.1837C156.29 50.8013 156.043 49.9728 156.043 48.6981V48.5547H165.985V47.3597C165.985 46.2922 165.834 45.4876 165.531 44.9458C165.244 44.3882 164.702 43.9819 163.906 43.7269C163.125 43.4561 161.962 43.3206 160.416 43.3206H159.938C157.644 43.3206 156.122 43.6313 155.373 44.2527C154.625 44.8741 154.25 46.1568 154.25 48.1006V48.3396C154.25 49.694 154.409 50.7057 154.728 51.3749C155.047 52.0282 155.612 52.4903 156.425 52.7611C157.254 53.032 158.496 53.1674 160.153 53.1674ZM164.216 47.2641H156.066C156.098 46.1647 156.345 45.4637 156.807 45.1609C157.285 44.8582 158.377 44.7068 160.082 44.7068H160.368C161.516 44.7068 162.36 44.7865 162.902 44.9458C163.444 45.0892 163.794 45.3123 163.953 45.615C164.129 45.9178 164.216 46.3878 164.216 47.0251V47.2641Z" fill="#293440"/>
        <path d="M180.394 47.4792V53.0001H178.577V47.8616C178.577 46.587 178.354 45.7664 177.908 45.3999C177.478 45.0175 176.49 44.8263 174.944 44.8263H174.681C173.184 44.8263 172.116 45.0414 171.479 45.4716C170.857 45.9018 170.547 46.6985 170.547 47.8616V53.0001H168.73V43.4879H170.595V45.0653C171.327 43.9022 172.825 43.3206 175.088 43.3206H175.398C177.406 43.3206 178.736 43.5995 179.39 44.1571C180.059 44.6989 180.394 45.8062 180.394 47.4792Z" fill="#293440"/>
        <path d="M187.855 53.1674H188.309C189.935 53.1674 191.034 52.9283 191.608 52.4503C192.181 51.9564 192.468 51.0403 192.468 49.7019V48.6502H190.843V49.4389C190.843 50.3791 190.707 50.9925 190.437 51.2793C190.166 51.5502 189.52 51.6856 188.501 51.6856H188.142C187.186 51.6856 186.573 51.5262 186.302 51.2076C186.047 50.873 185.919 50.0843 185.919 48.8414V44.8262H192.444V43.4879H185.919V41.05H184.079V43.4879H182.239V44.8262H184.079V49.0565C184.079 50.7295 184.326 51.837 184.82 52.3787C185.33 52.9044 186.342 53.1674 187.855 53.1674Z" fill="#293440"/>
        <path d="M220.067 47.4553V53.0001H218.251V47.8616C218.251 46.6029 218.052 45.7823 217.653 45.3999C217.271 45.0175 216.442 44.8263 215.168 44.8263H214.881C213.606 44.8263 212.682 45.0574 212.108 45.5194C211.551 45.9815 211.272 46.8021 211.272 47.9811V53.0001H209.456V47.8377C209.456 46.5631 209.256 45.7425 208.858 45.376C208.46 45.0096 207.631 44.8263 206.372 44.8263H206.11C204.819 44.8263 203.887 45.0494 203.313 45.4955C202.74 45.9257 202.453 46.7065 202.453 47.8377V53.0001H200.66V43.4879H202.501V45.0892C203.186 43.9102 204.532 43.3206 206.54 43.3206H206.827C208.213 43.3206 209.193 43.48 209.766 43.7986C210.356 44.1173 210.77 44.6511 211.009 45.3999C211.694 44.0137 213.12 43.3206 215.287 43.3206H215.598C217.366 43.3206 218.553 43.6074 219.159 44.181C219.764 44.7387 220.067 45.8301 220.067 47.4553Z" fill="#293440"/>
        <path d="M234.056 53.0001V47.8855C234.056 46.818 234 46.0134 233.889 45.4716C233.777 44.914 233.514 44.4599 233.1 44.1093C232.686 43.7588 232.152 43.5437 231.499 43.464C230.861 43.3684 229.913 43.3206 228.655 43.3206H228.248C226.32 43.3206 224.982 43.5118 224.233 43.8942C223.5 44.2766 223.134 45.0096 223.134 46.093V46.3798H224.902V46.1647C224.902 45.5752 225.11 45.1848 225.524 44.9936C225.954 44.8024 226.846 44.7068 228.201 44.7068H228.559C229.451 44.7068 230.121 44.7307 230.567 44.7785C231.013 44.8263 231.371 44.9618 231.642 45.1848C231.913 45.4079 232.072 45.6788 232.12 45.9974C232.184 46.3161 232.216 46.818 232.216 47.5031V48.0289C231.881 47.6943 231.395 47.4633 230.758 47.3358C230.137 47.2084 229.181 47.1446 227.89 47.1446H227.484C225.667 47.1446 224.424 47.3438 223.755 47.7421C223.102 48.1405 222.775 48.8973 222.775 50.0126V50.2277C222.775 51.3749 223.094 52.1557 223.731 52.5699C224.369 52.9683 225.667 53.1674 227.627 53.1674H228.009C229.268 53.1674 230.192 53.0878 230.782 52.9284C231.387 52.7691 231.865 52.4743 232.216 52.0441L232.24 53.0001H234.056ZM228.487 51.7812H228.201C226.655 51.7812 225.667 51.6856 225.237 51.4944C224.807 51.3032 224.592 50.8571 224.592 50.156V50.0604C224.592 49.4072 224.799 48.9849 225.213 48.7937C225.643 48.6025 226.583 48.5069 228.033 48.5069H228.368C229.977 48.5069 231.021 48.6025 231.499 48.7937C231.993 48.969 232.24 49.3833 232.24 50.0365V50.156C232.24 50.8252 232.001 51.2634 231.523 51.4705C231.045 51.6777 230.033 51.7812 228.487 51.7812Z" fill="#293440"/>
        <path d="M248.709 47.4792V53.0001H246.893V47.8616C246.893 46.587 246.67 45.7664 246.224 45.3999C245.793 45.0175 244.806 44.8263 243.26 44.8263H242.997C241.499 44.8263 240.432 45.0414 239.795 45.4716C239.173 45.9018 238.862 46.6985 238.862 47.8616V53.0001H237.046V43.4879H238.91V45.0653C239.643 43.9022 241.141 43.3206 243.403 43.3206H243.714C245.722 43.3206 247.052 43.5995 247.705 44.1571C248.375 44.6989 248.709 45.8062 248.709 47.4792Z" fill="#293440"/>
        <path d="M262.624 53.0001V47.8855C262.624 46.818 262.568 46.0134 262.457 45.4716C262.345 44.914 262.082 44.4599 261.668 44.1093C261.254 43.7588 260.72 43.5437 260.067 43.464C259.429 43.3684 258.481 43.3206 257.223 43.3206H256.816C254.888 43.3206 253.55 43.5118 252.801 43.8942C252.068 44.2766 251.702 45.0096 251.702 46.093V46.3798H253.47V46.1647C253.47 45.5752 253.678 45.1848 254.092 44.9936C254.522 44.8024 255.414 44.7068 256.769 44.7068H257.127C258.019 44.7068 258.689 44.7307 259.135 44.7785C259.581 44.8263 259.939 44.9618 260.21 45.1848C260.481 45.4079 260.64 45.6788 260.688 45.9974C260.752 46.3161 260.784 46.818 260.784 47.5031V48.0289C260.449 47.6943 259.963 47.4633 259.326 47.3358C258.704 47.2084 257.748 47.1446 256.458 47.1446H256.052C254.235 47.1446 252.992 47.3438 252.323 47.7421C251.67 48.1405 251.343 48.8973 251.343 50.0126V50.2277C251.343 51.3749 251.662 52.1557 252.299 52.5699C252.937 52.9683 254.235 53.1674 256.195 53.1674H256.577C257.836 53.1674 258.76 53.0878 259.35 52.9284C259.955 52.7691 260.433 52.4743 260.784 52.0441L260.808 53.0001H262.624ZM257.055 51.7812H256.769C255.223 51.7812 254.235 51.6856 253.805 51.4944C253.375 51.3032 253.16 50.8571 253.16 50.156V50.0604C253.16 49.4072 253.367 48.9849 253.781 48.7937C254.211 48.6025 255.151 48.5069 256.601 48.5069H256.936C258.545 48.5069 259.589 48.6025 260.067 48.7937C260.561 48.969 260.808 49.3833 260.808 50.0365V50.156C260.808 50.8252 260.569 51.2634 260.091 51.4705C259.613 51.6777 258.601 51.7812 257.055 51.7812Z" fill="#293440"/>
        <path d="M271.231 56.4895H270.681C268.609 56.4895 267.207 56.3063 266.474 55.9398C265.757 55.5734 265.399 54.7926 265.399 53.5976V53.2869H267.215V53.5259C267.215 54.1155 267.43 54.5058 267.861 54.697C268.307 54.8882 269.247 54.9838 270.681 54.9838H271.231C272.967 54.9838 274.083 54.7847 274.577 54.3863C275.086 53.988 275.357 53.1515 275.389 51.8768L275.341 50.8491C275.07 51.3909 274.6 51.7812 273.931 52.0202C273.278 52.2433 272.274 52.3548 270.92 52.3548H270.609C268.426 52.3548 266.976 52.076 266.259 51.5183C265.558 50.9447 265.208 49.7657 265.208 47.9811V47.7182C265.208 45.9178 265.558 44.7387 266.259 44.181C266.96 43.6074 268.394 43.3206 270.561 43.3206H270.872C272.179 43.3206 273.166 43.4322 273.836 43.6552C274.521 43.8624 275.047 44.2448 275.413 44.8024V43.4879H277.182V51.6856C277.182 52.7532 277.102 53.5817 276.943 54.1712C276.799 54.7767 276.489 55.2627 276.011 55.6291C275.533 55.9956 274.935 56.2266 274.218 56.3222C273.517 56.4338 272.521 56.4895 271.231 56.4895ZM270.896 50.8969H271.35C273.055 50.8969 274.154 50.7137 274.648 50.3472C275.142 49.9808 275.389 49.1761 275.389 47.9333V47.6943C275.389 46.4834 275.134 45.6947 274.624 45.3282C274.13 44.9618 273.039 44.7785 271.35 44.7785H270.896C269.239 44.7785 268.171 44.9538 267.693 45.3043C267.231 45.6549 267 46.4515 267 47.6943V47.9333C267 49.1921 267.231 50.0047 267.693 50.3711C268.155 50.7217 269.223 50.8969 270.896 50.8969Z" fill="#293440"/>
        <path d="M285.815 53.1674H286.317C288.356 53.1674 289.767 52.9444 290.547 52.4982C291.328 52.0362 291.718 51.1837 291.718 49.9409V49.6541H289.974V49.8931C289.974 50.6261 289.735 51.12 289.257 51.3749C288.779 51.6139 287.767 51.7334 286.221 51.7334H285.839C284.086 51.7334 282.955 51.5502 282.445 51.1837C281.951 50.8013 281.704 49.9728 281.704 48.6981V48.5547H291.647V47.3597C291.647 46.2922 291.495 45.4876 291.193 44.9458C290.906 44.3882 290.364 43.9819 289.567 43.7269C288.787 43.4561 287.624 43.3206 286.078 43.3206H285.6C283.306 43.3206 281.784 43.6313 281.035 44.2527C280.286 44.8741 279.912 46.1568 279.912 48.1006V48.3396C279.912 49.694 280.071 50.7057 280.39 51.3749C280.708 52.0282 281.274 52.4903 282.087 52.7611C282.915 53.032 284.158 53.1674 285.815 53.1674ZM289.878 47.2641H281.728C281.76 46.1647 282.007 45.4637 282.469 45.1609C282.947 44.8582 284.039 44.7068 285.743 44.7068H286.03C287.177 44.7068 288.022 44.7865 288.564 44.9458C289.105 45.0892 289.456 45.3123 289.615 45.615C289.79 45.9178 289.878 46.3878 289.878 47.0251V47.2641Z" fill="#293440"/>
        <path d="M313.847 53.0001H312.03V47.8616C312.03 46.6029 311.831 45.7823 311.433 45.3999C311.05 45.0175 310.222 44.8263 308.947 44.8263H308.66C307.386 44.8263 306.462 45.0574 305.888 45.5194C305.33 45.9815 305.051 46.8021 305.051 47.9811V53.0001H303.235V47.8377C303.235 46.5631 303.036 45.7425 302.638 45.376C302.239 45.0096 301.411 44.8263 300.152 44.8263H299.889C298.598 44.8263 297.666 45.0494 297.093 45.4955C296.519 45.9257 296.232 46.7065 296.232 47.8377V53.0001H294.44V43.4879H296.28V45.0892C296.965 43.9102 298.312 43.3206 300.319 43.3206H300.606C301.992 43.3206 302.972 43.48 303.546 43.7986C304.135 44.1173 304.55 44.6511 304.789 45.3999C305.474 44.0137 306.9 43.3206 309.067 43.3206H309.377C311.146 43.3206 312.333 43.6074 312.938 44.181C313.544 44.7387 313.847 45.8301 313.847 47.4553V53.0001Z" fill="#293440"/>
        <path d="M322.482 53.1674H322.984C325.023 53.1674 326.433 52.9444 327.214 52.4982C327.995 52.0362 328.385 51.1837 328.385 49.9409V49.6541H326.641V49.8931C326.641 50.6261 326.402 51.12 325.924 51.3749C325.446 51.6139 324.434 51.7334 322.888 51.7334H322.506C320.753 51.7334 319.622 51.5502 319.112 51.1837C318.618 50.8013 318.371 49.9728 318.371 48.6981V48.5547H328.314V47.3597C328.314 46.2922 328.162 45.4876 327.86 44.9458C327.573 44.3882 327.031 43.9819 326.234 43.7269C325.454 43.4561 324.29 43.3206 322.745 43.3206H322.267C319.973 43.3206 318.451 43.6313 317.702 44.2527C316.953 44.8741 316.579 46.1568 316.579 48.1006V48.3396C316.579 49.694 316.738 50.7057 317.057 51.3749C317.375 52.0282 317.941 52.4903 318.754 52.7611C319.582 53.032 320.825 53.1674 322.482 53.1674ZM326.545 47.2641H318.395C318.427 46.1647 318.674 45.4637 319.136 45.1609C319.614 44.8582 320.705 44.7068 322.41 44.7068H322.697C323.844 44.7068 324.689 44.7865 325.231 44.9458C325.772 45.0892 326.123 45.3123 326.282 45.615C326.457 45.9178 326.545 46.3878 326.545 47.0251V47.2641Z" fill="#293440"/>
        <path d="M342.722 47.4792V53.0001H340.906V47.8616C340.906 46.587 340.683 45.7664 340.237 45.3999C339.806 45.0175 338.818 44.8263 337.273 44.8263H337.01C335.512 44.8263 334.445 45.0414 333.807 45.4716C333.186 45.9018 332.875 46.6985 332.875 47.8616V53.0001H331.059V43.4879H332.923V45.0653C333.656 43.9022 335.154 43.3206 337.416 43.3206H337.727C339.735 43.3206 341.065 43.5995 341.718 44.1571C342.388 44.6989 342.722 45.8062 342.722 47.4792Z" fill="#293440"/>
        <path d="M350.184 53.1674H350.638C352.263 53.1674 353.363 52.9283 353.936 52.4503C354.51 51.9564 354.797 51.0403 354.797 49.7019V48.6502H353.171V49.4389C353.171 50.3791 353.036 50.9925 352.765 51.2793C352.494 51.5502 351.849 51.6856 350.829 51.6856H350.471C349.515 51.6856 348.901 51.5262 348.63 51.2076C348.376 50.873 348.248 50.0843 348.248 48.8414V44.8262H354.773V43.4879H348.248V41.05H346.408V43.4879H344.567V44.8262H346.408V49.0565C346.408 50.7295 346.655 51.837 347.149 52.3787C347.659 52.9044 348.67 53.1674 350.184 53.1674Z" fill="#293440"/>
        <path d="M369.036 53.1674H368.271C366.598 53.1674 365.363 53.0878 364.566 52.9284C363.77 52.7532 363.228 52.4823 362.941 52.1158C362.67 51.7334 362.535 51.1519 362.535 50.3711V50.0126H364.351V50.2038C364.351 50.6659 364.423 50.9925 364.566 51.1837C364.71 51.3749 365.044 51.5183 365.57 51.6139C366.112 51.7095 366.996 51.7573 368.223 51.7573H368.988C370.47 51.7573 371.41 51.6697 371.808 51.4944C372.206 51.3032 372.406 50.9129 372.406 50.3233V50.156C372.406 49.7577 372.318 49.4789 372.143 49.3195C371.983 49.1443 371.617 49.0168 371.043 48.9371C370.486 48.8415 369.577 48.7937 368.319 48.7937C365.992 48.7937 364.487 48.6264 363.802 48.2918C363.132 47.9572 362.798 47.2323 362.798 46.1169V45.8779C362.798 44.906 363.148 44.2368 363.849 43.8703C364.55 43.5039 365.881 43.3206 367.841 43.3206H368.438C370.605 43.3206 372.031 43.5039 372.716 43.8703C373.417 44.2209 373.768 44.9618 373.768 46.093V46.3798H372.023V46.1647C372.023 45.5593 371.816 45.1689 371.402 44.9936C370.987 44.8024 370.031 44.7068 368.534 44.7068H367.984C366.502 44.7068 365.562 44.7865 365.164 44.9458C364.766 45.0892 364.566 45.4159 364.566 45.9257V46.093C364.566 46.6507 364.789 47.0092 365.236 47.1685C365.698 47.3119 366.797 47.3836 368.534 47.3836C370.828 47.3836 372.342 47.5669 373.075 47.9333C373.808 48.2839 374.174 48.9929 374.174 50.0604V50.2755C374.174 51.3749 373.824 52.1318 373.123 52.546C372.421 52.9603 371.059 53.1674 369.036 53.1674Z" fill="#293440"/>
        <path d="M376.851 54.9359V56.3699C377.122 56.3859 377.576 56.3938 378.213 56.3938C378.819 56.3938 379.297 56.346 379.647 56.2504C380.014 56.1708 380.404 55.9636 380.819 55.629C381.233 55.3104 381.631 54.8483 382.014 54.2428C382.412 53.6533 382.898 52.8168 383.471 51.7333L387.797 43.4878H385.861L381.798 51.3987L377.329 43.4878H375.345L380.58 52.8088H381.081C380.54 53.717 380.054 54.2986 379.624 54.5535C379.209 54.8244 378.628 54.9598 377.879 54.9598C377.385 54.9598 377.042 54.9519 376.851 54.9359Z" fill="#293440"/>
        <path d="M395.48 53.1674H394.715C393.042 53.1674 391.807 53.0878 391.01 52.9284C390.214 52.7532 389.672 52.4823 389.385 52.1158C389.114 51.7334 388.979 51.1519 388.979 50.3711V50.0126H390.795V50.2038C390.795 50.6659 390.867 50.9925 391.01 51.1837C391.154 51.3749 391.488 51.5183 392.014 51.6139C392.556 51.7095 393.44 51.7573 394.667 51.7573H395.432C396.914 51.7573 397.854 51.6697 398.252 51.4944C398.65 51.3032 398.85 50.9129 398.85 50.3233V50.156C398.85 49.7577 398.762 49.4789 398.587 49.3195C398.427 49.1443 398.061 49.0168 397.487 48.9371C396.93 48.8415 396.021 48.7937 394.763 48.7937C392.436 48.7937 390.931 48.6264 390.246 48.2918C389.576 47.9572 389.242 47.2323 389.242 46.1169V45.8779C389.242 44.906 389.592 44.2368 390.293 43.8703C390.994 43.5039 392.325 43.3206 394.285 43.3206H394.882C397.049 43.3206 398.475 43.5039 399.16 43.8703C399.861 44.2209 400.212 44.9618 400.212 46.093V46.3798H398.467V46.1647C398.467 45.5593 398.26 45.1689 397.846 44.9936C397.432 44.8024 396.476 44.7068 394.978 44.7068H394.428C392.946 44.7068 392.006 44.7865 391.608 44.9458C391.21 45.0892 391.01 45.4159 391.01 45.9257V46.093C391.01 46.6507 391.233 47.0092 391.68 47.1685C392.142 47.3119 393.241 47.3836 394.978 47.3836C397.272 47.3836 398.786 47.5669 399.519 47.9333C400.252 48.2839 400.618 48.9929 400.618 50.0604V50.2755C400.618 51.3749 400.268 52.1318 399.567 52.546C398.866 52.9603 397.503 53.1674 395.48 53.1674Z" fill="#293440"/>
        <path d="M407.717 53.1674H408.171C409.796 53.1674 410.895 52.9283 411.469 52.4503C412.043 51.9564 412.329 51.0403 412.329 49.7019V48.6502H410.704V49.4389C410.704 50.3791 410.569 50.9925 410.298 51.2793C410.027 51.5502 409.382 51.6856 408.362 51.6856H408.003C407.047 51.6856 406.434 51.5262 406.163 51.2076C405.908 50.873 405.781 50.0843 405.781 48.8414V44.8262H412.305V43.4879H405.781V41.05H403.94V43.4879H402.1V44.8262H403.94V49.0565C403.94 50.7295 404.187 51.837 404.681 52.3787C405.191 52.9044 406.203 53.1674 407.717 53.1674Z" fill="#293440"/>
        <path d="M420.731 53.1674H420.229C418.572 53.1674 417.329 53.032 416.501 52.7611C415.688 52.4903 415.123 52.0282 414.804 51.3749C414.485 50.7057 414.326 49.694 414.326 48.3396V48.1006C414.326 46.1568 414.7 44.8741 415.449 44.2527C416.198 43.6313 417.72 43.3206 420.014 43.3206H420.492C422.038 43.3206 423.201 43.4561 423.982 43.7269C424.778 43.9819 425.32 44.3882 425.607 44.9458C425.909 45.4876 426.061 46.2922 426.061 47.3597V48.5547H416.118V48.6981C416.118 49.9728 416.365 50.8013 416.859 51.1837C417.369 51.5502 418.501 51.7334 420.253 51.7334H420.636C422.181 51.7334 423.193 51.6139 423.671 51.3749C424.149 51.12 424.388 50.6261 424.388 49.8931V49.6541H426.133V49.9409C426.133 51.1837 425.742 52.0362 424.961 52.4982C424.181 52.9444 422.771 53.1674 420.731 53.1674ZM416.142 47.2641H424.292V47.0251C424.292 46.3878 424.205 45.9178 424.029 45.615C423.87 45.3123 423.52 45.0892 422.978 44.9458C422.436 44.7865 421.592 44.7068 420.444 44.7068H420.158C418.453 44.7068 417.361 44.8582 416.883 45.1609C416.421 45.4637 416.174 46.1647 416.142 47.2641Z" fill="#293440"/>
        <path d="M446.444 53.0001H448.261V47.4553C448.261 45.8301 447.958 44.7387 447.353 44.181C446.747 43.6074 445.56 43.3206 443.791 43.3206H443.481C441.314 43.3206 439.888 44.0137 439.203 45.3999C438.964 44.6511 438.549 44.1173 437.96 43.7986C437.386 43.48 436.406 43.3206 435.02 43.3206H434.733C432.726 43.3206 431.379 43.9102 430.694 45.0892V43.4879H428.854V53.0001H430.646V47.8377C430.646 46.7065 430.933 45.9257 431.507 45.4955C432.08 45.0494 433.013 44.8263 434.303 44.8263H434.566C435.825 44.8263 436.653 45.0096 437.052 45.376C437.45 45.7425 437.649 46.5631 437.649 47.8377V53.0001H439.466V47.9811C439.466 46.8021 439.744 45.9815 440.302 45.5194C440.876 45.0574 441.8 44.8263 443.074 44.8263H443.361C444.636 44.8263 445.464 45.0175 445.847 45.3999C446.245 45.7823 446.444 46.6029 446.444 47.8616V53.0001Z" fill="#293440"/>
    <g/>
</svg>
