<svg width="32" height="32" viewBox="0 0 32 32" fill="none" xmlns="http://www.w3.org/2000/svg">
<path fill-rule="evenodd" clip-rule="evenodd" d="M16 28C22.6274 28 28 22.6274 28 16C28 9.37258 22.6274 4 16 4C9.37258 4 4 9.37258 4 16C4 22.6274 9.37258 28 16 28ZM16 31C24.2843 31 31 24.2843 31 16C31 7.71573 24.2843 1 16 1C7.71573 1 1 7.71573 1 16C1 24.2843 7.71573 31 16 31ZM17.3969 20.8627H15.2595V23.0001H17.3969V20.8627ZM13.3984 9.09122C14.3036 8.27954 15.5273 7.89107 16.7563 8.02572C18.7211 8.24107 20.3054 9.81473 20.5229 11.7678C20.6971 13.3329 19.9982 14.8585 18.6986 15.7487C17.8501 16.3306 17.3435 17.2689 17.3435 18.2591H15.2061C15.2061 16.5631 16.06 14.9659 17.4905 13.9853C18.137 13.5424 18.4849 12.7831 18.3983 12.0045C18.2909 11.0373 17.5022 10.2577 16.5233 10.1503C15.8885 10.0808 15.2857 10.27 14.8251 10.6825C14.3816 11.0801 14.1374 11.6267 14.1374 12.2209H12C12 11.0282 12.5098 9.88794 13.3984 9.09122Z" fill="#FFC20A"/>
<path d="M15.2595 20.8627V20.3627H14.7595V20.8627H15.2595ZM17.3969 20.8627H17.8969V20.3627H17.3969V20.8627ZM15.2595 23.0001H14.7595V23.5001H15.2595V23.0001ZM17.3969 23.0001V23.5001H17.8969V23.0001H17.3969ZM16.7563 8.02572L16.8107 7.5287L16.8107 7.5287L16.7563 8.02572ZM13.3984 9.09122L13.7322 9.4635L13.7322 9.46348L13.3984 9.09122ZM20.5229 11.7678L21.0198 11.7125L21.0198 11.7125L20.5229 11.7678ZM18.6986 15.7487L18.4161 15.3362L18.4158 15.3363L18.6986 15.7487ZM17.3435 18.2591V18.7591H17.8435V18.2591H17.3435ZM15.2061 18.2591H14.7061V18.7591H15.2061V18.2591ZM17.4905 13.9853L17.2079 13.5729L17.2078 13.5729L17.4905 13.9853ZM18.3983 12.0045L17.9014 12.0597L17.9014 12.0598L18.3983 12.0045ZM16.5233 10.1503L16.5778 9.65329L16.5777 9.65327L16.5233 10.1503ZM14.8251 10.6825L14.4915 10.3101L14.4914 10.3102L14.8251 10.6825ZM14.1374 12.2209V12.7209H14.6374V12.2209H14.1374ZM12 12.2209H11.5V12.7209H12V12.2209ZM27.5 16C27.5 22.3513 22.3513 27.5 16 27.5V28.5C22.9036 28.5 28.5 22.9036 28.5 16H27.5ZM16 4.5C22.3513 4.5 27.5 9.64873 27.5 16H28.5C28.5 9.09644 22.9036 3.5 16 3.5V4.5ZM4.5 16C4.5 9.64873 9.64873 4.5 16 4.5V3.5C9.09644 3.5 3.5 9.09644 3.5 16H4.5ZM16 27.5C9.64873 27.5 4.5 22.3513 4.5 16H3.5C3.5 22.9036 9.09644 28.5 16 28.5V27.5ZM30.5 16C30.5 24.0081 24.0081 30.5 16 30.5V31.5C24.5604 31.5 31.5 24.5604 31.5 16H30.5ZM16 1.5C24.0081 1.5 30.5 7.99187 30.5 16H31.5C31.5 7.43959 24.5604 0.5 16 0.5V1.5ZM1.5 16C1.5 7.99187 7.99187 1.5 16 1.5V0.5C7.43959 0.5 0.5 7.43959 0.5 16H1.5ZM16 30.5C7.99187 30.5 1.5 24.0081 1.5 16H0.5C0.5 24.5604 7.43959 31.5 16 31.5V30.5ZM15.2595 21.3627H17.3969V20.3627H15.2595V21.3627ZM15.7595 23.0001V20.8627H14.7595V23.0001H15.7595ZM17.3969 22.5001H15.2595V23.5001H17.3969V22.5001ZM16.8969 20.8627V23.0001H17.8969V20.8627H16.8969ZM16.8107 7.5287C15.4431 7.37885 14.0776 7.81065 13.0646 8.71896L13.7322 9.46348C14.5296 8.74844 15.6114 8.40328 16.7018 8.52275L16.8107 7.5287ZM21.0198 11.7125C20.7762 9.52468 19.0062 7.76932 16.8107 7.5287L16.7018 8.52275C18.436 8.71282 19.8346 10.1048 20.026 11.8231L21.0198 11.7125ZM18.9812 16.1612C20.4331 15.1666 21.2145 13.4611 21.0198 11.7125L20.026 11.8231C20.1797 13.2047 19.5632 14.5504 18.4161 15.3362L18.9812 16.1612ZM17.8435 18.2591C17.8435 17.4414 18.2624 16.6541 18.9814 16.1611L18.4158 15.3363C17.4377 16.0071 16.8435 17.0965 16.8435 18.2591H17.8435ZM15.2061 18.7591H17.3435V17.7591H15.2061V18.7591ZM17.2078 13.5729C15.645 14.6441 14.7061 16.3937 14.7061 18.2591H15.7061C15.7061 16.7324 16.475 15.2876 17.7732 14.3978L17.2078 13.5729ZM17.9014 12.0598C17.9675 12.6548 17.7021 13.2343 17.2079 13.5729L17.7731 14.3978C18.572 13.8505 19.0022 12.9113 18.8953 11.9492L17.9014 12.0598ZM16.4688 10.6473C17.2192 10.7297 17.8203 11.3294 17.9014 12.0597L18.8953 11.9493C18.7616 10.7452 17.7852 9.78576 16.5778 9.65329L16.4688 10.6473ZM15.1587 11.055C15.5098 10.7405 15.9702 10.5928 16.4689 10.6473L16.5777 9.65327C15.8068 9.56891 15.0616 9.79949 14.4915 10.3101L15.1587 11.055ZM14.6374 12.2209C14.6374 11.769 14.821 11.3577 15.1589 11.0548L14.4914 10.3102C13.9422 10.8024 13.6374 11.4844 13.6374 12.2209H14.6374ZM12 12.7209H14.1374V11.7209H12V12.7209ZM13.0646 8.71894C12.0704 9.61035 11.5 10.8859 11.5 12.2209H12.5C12.5 11.1705 12.9492 10.1655 13.7322 9.4635L13.0646 8.71894Z" fill="#FFC20A"/>
</svg>
