<svg width="22" height="20" viewBox="0 0 22 20" fill="none" xmlns="http://www.w3.org/2000/svg">
<path fill-rule="evenodd" clip-rule="evenodd" d="M1 0H12C12.7 0.1 13 0.7 13 1.5V19C13 19.6 12.6 20 12 20H9.5H4.5H0.8C0.4 20 0 19.6 0 19.1V1.5C0 0.5 0.5 0 1 0ZM2.25 7C2.25 6.58579 2.58579 6.25 3 6.25H4C4.41421 6.25 4.75 6.58579 4.75 7C4.75 7.41421 4.41421 7.75 4 7.75H3C2.58579 7.75 2.25 7.41421 2.25 7ZM3 3.25C2.58579 3.25 2.25 3.58579 2.25 4C2.25 4.41421 2.58579 4.75 3 4.75H4C4.41421 4.75 4.75 4.41421 4.75 4C4.75 3.58579 4.41421 3.25 4 3.25H3ZM8.25 7C8.25 6.58579 8.58579 6.25 9 6.25H10C10.4142 6.25 10.75 6.58579 10.75 7C10.75 7.41421 10.4142 7.75 10 7.75H9C8.58579 7.75 8.25 7.41421 8.25 7ZM9 3.25C8.58579 3.25 8.25 3.58579 8.25 4C8.25 4.41421 8.58579 4.75 9 4.75H10C10.4142 4.75 10.75 4.41421 10.75 4C10.75 3.58579 10.4142 3.25 10 3.25H9ZM5.25 7C5.25 6.58579 5.58579 6.25 6 6.25H7C7.41421 6.25 7.75 6.58579 7.75 7C7.75 7.41421 7.41421 7.75 7 7.75H6C5.58579 7.75 5.25 7.41421 5.25 7ZM6 3.25C5.58579 3.25 5.25 3.58579 5.25 4C5.25 4.41421 5.58579 4.75 6 4.75H7C7.41421 4.75 7.75 4.41421 7.75 4C7.75 3.58579 7.41421 3.25 7 3.25H6ZM8.25 10C8.25 9.58579 8.58579 9.25 9 9.25H10C10.4142 9.25 10.75 9.58579 10.75 10C10.75 10.4142 10.4142 10.75 10 10.75H9C8.58579 10.75 8.25 10.4142 8.25 10ZM6 9.25C5.58579 9.25 5.25 9.58579 5.25 10C5.25 10.4142 5.58579 10.75 6 10.75H7C7.41421 10.75 7.75 10.4142 7.75 10C7.75 9.58579 7.41421 9.25 7 9.25H6ZM8.25 13C8.25 12.5858 8.58579 12.25 9 12.25H10C10.4142 12.25 10.75 12.5858 10.75 13C10.75 13.4142 10.4142 13.75 10 13.75H9C8.58579 13.75 8.25 13.4142 8.25 13ZM6 12.25C5.58579 12.25 5.25 12.5858 5.25 13C5.25 13.4142 5.58579 13.75 6 13.75H7C7.41421 13.75 7.75 13.4142 7.75 13C7.75 12.5858 7.41421 12.25 7 12.25H6ZM8.25 16C8.25 15.5858 8.58579 15.25 9 15.25H10C10.4142 15.25 10.75 15.5858 10.75 16C10.75 16.4142 10.4142 16.75 10 16.75H9C8.58579 16.75 8.25 16.4142 8.25 16ZM6 15.25C5.58579 15.25 5.25 15.5858 5.25 16C5.25 16.4142 5.58579 16.75 6 16.75H7C7.41421 16.75 7.75 16.4142 7.75 16C7.75 15.5858 7.41421 15.25 7 15.25H6ZM2.25 10C2.25 9.58579 2.58579 9.25 3 9.25H4C4.41421 9.25 4.75 9.58579 4.75 10C4.75 10.4142 4.41421 10.75 4 10.75H3C2.58579 10.75 2.25 10.4142 2.25 10ZM3 12.25C2.58579 12.25 2.25 12.5858 2.25 13C2.25 13.4142 2.58579 13.75 3 13.75H4C4.41421 13.75 4.75 13.4142 4.75 13C4.75 12.5858 4.41421 12.25 4 12.25H3ZM2.25 16C2.25 15.5858 2.58579 15.25 3 15.25H4C4.41421 15.25 4.75 15.5858 4.75 16C4.75 16.4142 4.41421 16.75 4 16.75H3C2.58579 16.75 2.25 16.4142 2.25 16ZM17.9394 9.00014L20.9887 9C21.4878 9 22 9.35739 22 10.0479V19C22 19.5 21.4878 20 20.9887 20.0001H18.427H15.9981C15.4521 20.0001 15.0074 19.5604 15.0002 19.0133L15 19L15.0132 16.9385V13.8769V11.4385V10.2193V9.98698C15.0132 9.44195 15.4541 9.00009 15.9981 9L16.4763 9.00015L17.9394 9.00014ZM16.5 12C16.5 11.7239 16.7239 11.5 17 11.5H20C20.2761 11.5 20.5 11.7239 20.5 12C20.5 12.2761 20.2761 12.5 20 12.5H17C16.7239 12.5 16.5 12.2761 16.5 12ZM17 13.5C16.7239 13.5 16.5 13.7239 16.5 14C16.5 14.2761 16.7239 14.5 17 14.5H20C20.2761 14.5 20.5 14.2761 20.5 14C20.5 13.7239 20.2761 13.5 20 13.5H17ZM16.5 16C16.5 15.7239 16.7239 15.5 17 15.5H20C20.2761 15.5 20.5 15.7239 20.5 16C20.5 16.2761 20.2761 16.5 20 16.5H17C16.7239 16.5 16.5 16.2761 16.5 16Z" fill="#1D68D9"/>
</svg>
