<svg viewBox="0 0 22 22">
    <path
        className="cls-1"
        d="M21.08,17.7H18.64a3.15,3.15,0,0,0-6.12,0H.92a1,1,0,0,0,0,1.91H12.52a3.15,3.15,0,0,0,6.12,0h2.44a1,1,0,0,0,0-1.91Z"
    />
    <path
        className="cls-1"
        d="M21.08,2.39H18.64a3.15,3.15,0,0,0-6.12,0H.92a.94.94,0,0,0-.92,1,.94.94,0,0,0,.92,1H12.52a3.15,3.15,0,0,0,6.12,0h2.44a.94.94,0,0,0,.92-1A.94.94,0,0,0,21.08,2.39Z"
    />
    <path
        className="cls-1"
        d="M21.08,10H9.48A3.22,3.22,0,0,0,6.42,7.65,3.22,3.22,0,0,0,3.36,10H.92A1,1,0,0,0,.92,12H3.36a3.23,3.23,0,0,0,3.06,2.39A3.22,3.22,0,0,0,9.48,12H21.08a1,1,0,0,0,0-1.91Z"
    />
</svg>
