<svg width="21" height="21" viewBox="0 0 21 21" fill="none" xmlns="http://www.w3.org/2000/svg">
<path fill-rule="evenodd" clip-rule="evenodd" d="M10.2 1.94C12.22 1.94 14.07 2.66 15.5 3.86C15.77 4.08 16.13 4.15 16.46 4.03C16.79 3.91 17.02 3.63 17.08 3.29C17.14 2.95 17.01 2.6 16.75 2.38C14.98 0.89 12.69 0 10.2 0C5.98004 0 2.35004 2.56 0.800038 6.22C0.660038 6.54 0.700038 6.91 0.910038 7.19C1.12004 7.47 1.46004 7.62 1.81004 7.57C2.16004 7.53 2.45004 7.3 2.58004 6.97C3.84004 4.02 6.77004 1.94 10.2 1.94ZM17.06 9.28995L17.26 9.25995C16.8 5.76995 13.81 3.06995 10.2 3.06995C9.37004 3.06995 8.57004 3.20995 7.83004 3.46995L7.90004 3.65995L7.83004 3.47995C7.50004 3.59995 7.26004 3.87995 7.20004 4.21995C7.13004 4.55995 7.26004 4.90995 7.52004 5.12995C7.78004 5.34995 8.15004 5.41995 8.47004 5.30995L8.41004 5.11995L8.48004 5.30995C9.02004 5.11995 9.60004 5.01995 10.21 5.01995C12.93 5.01995 15.14 7.08995 15.37 9.73995L15.39 9.99995L15.64 9.89995C16.1 9.70995 16.59 9.56995 17.1 9.48995L17.29 9.45995L17.26 9.26995L17.06 9.28995ZM7.20004 4.21995L7.40004 4.25995H7.39004L7.20004 4.21995ZM19.14 5.30003C19.83 6.55003 20.26 7.97003 20.37 9.47003L20.4 9.77003L20.12 9.69003C19.64 9.55003 19.13 9.46003 18.6 9.43003L18.43 9.42003L18.41 9.25003C18.28 8.17003 17.95 7.15003 17.45 6.24003C17.28 5.94003 17.28 5.58003 17.45 5.28003C17.61 4.98003 17.93 4.80003 18.27 4.79003C18.63 4.78003 18.97 4.98003 19.14 5.30003ZM9.70998 16.3C10.01 16.48 10.38 16.48 10.69 16.3C10.99 16.12 11.17 15.8 11.17 15.45V10.19C11.17 9.93003 11.07 9.68003 10.89 9.49003C10.71 9.30003 10.45 9.20004 10.19 9.21003C9.64998 9.22004 9.22998 9.66003 9.22998 10.19V15.45C9.22998 15.8 9.40998 16.12 9.70998 16.3ZM10.22 17.59C9.96003 17.59 9.72003 17.69 9.53003 17.87C9.35003 18.05 9.25003 18.3 9.24003 18.55L9.23003 19.4C9.22003 19.93 9.64003 20.38 10.18 20.39C10.71 20.4 11.16 19.98 11.17 19.44L11.18 18.59C11.19 18.33 11.09 18.08 10.91 17.89C10.73 17.7 10.48 17.59 10.22 17.59ZM5.51995 5.45004C5.80995 5.50004 6.07995 5.68004 6.21995 5.96004C6.38995 6.30004 6.34995 6.71004 6.10995 7.01004C5.41995 7.89004 5.00995 8.99004 5.00995 10.2V17.89C5.00995 18.24 4.82995 18.56 4.52995 18.74C4.22995 18.92 3.84995 18.92 3.54995 18.74C3.24995 18.56 3.06995 18.24 3.06995 17.89V10.2C3.06995 8.55005 3.63995 7.03004 4.57995 5.82004C4.75995 5.59004 5.01995 5.45004 5.29995 5.43004L5.51995 5.42004V5.45004ZM10.4 6.15002V6.17002C12.53 6.28002 14.25 8.04002 14.25 10.19V10.56V10.66L14.17 10.72C13.58 11.16 13.05 11.7 12.63 12.31L12.23 12.88L12.26 12.19C12.29 11.52 12.31 10.85 12.31 10.2C12.31 9.02002 11.38 8.09002 10.2 8.09002C9.02002 8.09002 8.09002 9.03003 8.09002 10.2V19.42C8.09002 19.77 7.91002 20.09 7.61002 20.27C7.31002 20.45 6.93003 20.45 6.63002 20.27L6.73002 20.1L6.71002 20.13L6.63002 20.27C6.33002 20.09 6.15002 19.77 6.15002 19.42V10.19C6.15002 7.97002 7.97002 6.15002 10.2 6.15002H10.4ZM0.96 8.60005H0.95C0.45 8.62005 0.0500002 9.01005 0.0200005 9.50005C0.0100002 9.73005 0 9.96005 0 10.19V15.57C0 15.92 0.18 16.24 0.48 16.42C0.78 16.6 1.15 16.6 1.46 16.42C1.76 16.24 1.94 15.92 1.94 15.57V10.19C1.94 10.0091 1.94907 9.83725 1.95857 9.65719L1.96 9.63005C1.98 9.36005 1.88 9.09005 1.69 8.89005C1.5 8.69005 1.23 8.59005 0.96 8.60005ZM14.6505 16.4002C14.3404 16.0788 13.8378 16.0788 13.5277 16.4002C13.2069 16.7217 13.2069 17.2426 13.517 17.564L16.5861 20.7562C16.661 20.8337 16.7465 20.8892 16.8428 20.9335C16.939 20.9778 17.0353 21 17.1422 21C17.2491 21 17.3561 20.9778 17.4523 20.9335C17.5486 20.8892 17.6341 20.8337 17.709 20.7562L20.7674 17.564C21.0775 17.2426 21.0775 16.7217 20.7674 16.4002C20.4573 16.0788 19.9547 16.0788 19.6446 16.4002L17.9442 18.1736L17.9442 12.8202C17.9442 12.3658 17.5913 12 17.1422 12C16.7038 12 16.3509 12.3658 16.3509 12.8202L16.3509 18.1736L14.6505 16.4002Z" fill="#1D68D9"/>
</svg>
