<svg width="21" height="21" viewBox="0 0 21 21" fill="none" xmlns="http://www.w3.org/2000/svg">
<path fill-rule="evenodd" clip-rule="evenodd" d="M6.10733 0C6.565 0 6.93658 0.371539 6.93658 0.830242C6.93658 1.28786 6.56609 1.65939 6.10733 1.65939L4.33224 1.66048C2.859 1.66266 1.66035 2.86226 1.66035 4.33643V6.40223C1.66035 6.85985 1.28768 7.23247 0.83001 7.23247C0.372344 7.23247 0.000762939 6.85985 0.000762939 6.40223V4.33643C0.000762939 1.94813 1.94366 0.00326824 4.33115 0.0010891L6.10733 0ZM13.9235 0.00032711H15.6594C18.0534 0.00032711 19.9996 1.94627 19.9996 4.34003V6.40256C19.9996 6.86017 19.6291 7.2328 19.1703 7.2328C18.7127 7.2328 18.3411 6.86017 18.3411 6.40256V4.34003C18.3411 2.8615 17.1381 1.65863 15.6594 1.65863H13.9235C13.4658 1.65863 13.0943 1.28818 13.0943 0.830569C13.0943 0.371865 13.4658 0.00032711 13.9235 0.00032711ZM1.65958 12.2222H0V15.6636C0 18.0519 1.94399 19.9967 4.33148 19.9989L6.10657 20C6.56533 20 6.93582 19.6285 6.93691 19.1698C6.93691 18.7121 6.56533 18.3406 6.10766 18.3406L4.33366 18.3395C2.85932 18.3373 1.65958 17.1377 1.65958 15.6636V12.2222ZM9.79998 10.3499C11.5634 10.3499 12.9764 8.93685 12.9764 7.17463C12.9764 5.41241 11.5634 4 9.79998 4C8.03712 4 6.62359 5.41241 6.62359 7.17463C6.62359 8.93685 8.03712 10.3499 9.79998 10.3499ZM5 13.945C5 15.577 7.19742 16 9.8 16C10.2121 16 10.6145 15.9897 11.0001 15.9657C11.007 14.5241 11.4497 13.1855 12.2032 12.0748C11.4917 11.9515 10.6685 11.9044 9.8 11.9044C7.21123 11.9044 5 12.3124 5 13.945ZM14.6505 16.4002C14.3404 16.0788 13.8378 16.0788 13.5277 16.4002C13.2069 16.7217 13.2069 17.2426 13.517 17.564L16.5861 20.7562C16.661 20.8337 16.7465 20.8892 16.8428 20.9335C16.939 20.9778 17.0353 21 17.1422 21C17.2491 21 17.3561 20.9778 17.4523 20.9335C17.5486 20.8892 17.6341 20.8337 17.709 20.7562L20.7674 17.564C21.0775 17.2426 21.0775 16.7217 20.7674 16.4002C20.4573 16.0788 19.9547 16.0788 19.6446 16.4002L17.9442 18.1736V12.8202C17.9442 12.3658 17.5913 12 17.1422 12C16.7038 12 16.3509 12.3658 16.3509 12.8202L16.3509 18.1736L14.6505 16.4002Z" fill="#1D68D9"/>
</svg>
