<svg width="22" height="20" viewBox="0 0 22 20" fill="none" xmlns="http://www.w3.org/2000/svg">
<path fill-rule="evenodd" clip-rule="evenodd" d="M16.3853 0.249756H5.03167C2.30938 0.249756 0.527663 2.03492 0.27936 4.63828C0.346856 4.61833 0.418318 4.60763 0.49228 4.60763L20.9247 4.60763C20.9991 4.60763 21.0709 4.61845 21.1387 4.63861C20.8915 2.03507 19.1158 0.249756 16.3853 0.249756ZM0.249512 7.56671V6.06746C0.325654 6.0935 0.407317 6.10763 0.49228 6.10763L20.9247 6.10763C21.01 6.10763 21.092 6.09338 21.1684 6.06714V7.56704C21.092 7.54079 21.01 7.52655 20.9247 7.52655L0.49228 7.52655C0.407317 7.52655 0.325654 7.54067 0.249512 7.56671ZM0.249512 8.98638V13.2234C0.249512 16.1686 2.08357 18.2498 5.03167 18.2498H12.7985C12.2885 17.2786 12 16.173 12 15C12 12.472 13.3401 10.2569 15.3487 9.02655L0.49228 9.02655C0.407317 9.02655 0.325654 9.01242 0.249512 8.98638ZM15.6505 15.4002C15.3404 15.0788 14.8378 15.0788 14.5277 15.4002C14.2069 15.7217 14.2069 16.2426 14.517 16.564L17.5861 19.7562C17.661 19.8337 17.7465 19.8892 17.8428 19.9335C17.939 19.9778 18.0353 20 18.1422 20C18.2491 20 18.3561 19.9778 18.4523 19.9335C18.5486 19.8892 18.6341 19.8337 18.709 19.7562L21.7674 16.564C22.0775 16.2426 22.0775 15.7217 21.7674 15.4002C21.4573 15.0788 20.9547 15.0788 20.6446 15.4002L18.9442 17.1736V11.8202C18.9442 11.3658 18.5913 11 18.1422 11C17.7038 11 17.3509 11.3658 17.3509 11.8202L17.3509 17.1736L15.6505 15.4002Z" fill="#1D68D9"/>
</svg>
