<svg width="99" height="34" viewBox="0 0 99 34" fill="none" xmlns="http://www.w3.org/2000/svg">
<path fill-rule="evenodd" clip-rule="evenodd" d="M25.704 1H25.7313C25.7524 1.00016 25.7735 1.0005 25.7945 1.001C26.3561 1.01347 26.866 1.14276 27.308 1.39768C29.2189 2.49965 29.7785 5.84663 28.9226 10.0012C28.8705 10.2542 28.8119 10.5116 28.748 10.7724C29.1367 10.8846 29.5143 11.0033 29.8786 11.1287C33.6721 12.4346 36.1236 14.4802 36.1236 16.5954C36.1236 18.8012 33.5038 20.958 29.4772 22.2921C29.2644 22.3626 29.0462 22.4304 28.824 22.4961C28.9033 22.815 28.974 23.1283 29.0347 23.4349C29.8295 27.4502 29.2173 30.7504 27.3334 31.841C26.0876 32.5622 24.3173 32.3069 22.369 31.2541C21.8792 30.9901 21.3788 30.6755 20.8714 30.3117C20.4426 30.0049 20.0097 29.6641 19.5761 29.2909C19.5129 29.2366 19.4497 29.1815 19.3864 29.1257C19.1329 28.9044 18.8793 28.6689 18.6257 28.4255C18.3811 28.6619 18.1369 28.8874 17.8936 29.1001C15.717 31.0027 13.499 32.1192 11.7194 32.2277C11.384 32.249 11.0604 32.2341 10.7524 32.1783C10.3933 32.1144 10.0611 31.9972 9.76123 31.8243C9.43915 31.6385 9.15603 31.3899 8.91219 31.0852C8.42685 30.483 8.11528 29.6787 7.94375 28.7625C7.88516 28.4417 7.8427 28.1041 7.81662 27.7508C7.8091 27.6489 7.80295 27.5458 7.79816 27.4414C7.74866 26.3624 7.84506 25.147 8.09375 23.825C8.16873 23.4188 8.26246 23.0002 8.36867 22.5753C8.0431 22.4818 7.72715 22.3834 7.42263 22.2793C5.09369 21.4833 3.24337 20.3765 2.13813 19.1473C1.45188 18.3902 1.02739 17.5599 1.00128 16.68C1.00043 16.6518 1 16.6236 1 16.5954C1 16.5951 1 16.5949 1 16.5946C1 16.5943 1 16.594 1 16.5937C1 15.45 1.68562 14.4 2.74312 13.4937C2.80648 13.4398 2.87132 13.3863 2.93764 13.3331C3.97716 12.4971 5.39518 11.7516 7.09346 11.1595C7.50879 11.0147 7.94284 10.8786 8.39244 10.751C8.29298 10.3529 8.20592 9.96708 8.13125 9.5875C7.85144 8.16046 7.74562 6.85174 7.81118 5.69663C7.84976 4.98398 7.95308 4.3338 8.12086 3.76041C8.34846 2.97137 8.7059 2.29984 9.22812 1.82039C9.38465 1.67502 9.55394 1.54901 9.73597 1.44363C9.95774 1.31524 10.1967 1.21779 10.4507 1.15023C10.7784 1.06189 11.1259 1.02551 11.4875 1.03437C11.6628 1.0385 11.8414 1.05335 12.0227 1.07814C13.765 1.31145 15.8822 2.46462 17.996 4.34153C18.1891 4.51291 18.3826 4.69206 18.5764 4.87743C18.8697 4.59666 19.163 4.32836 19.45 4.07812C20.4369 3.21893 21.4124 2.52762 22.3502 2.01822C23.2206 1.54384 24.0549 1.22713 24.822 1.08525C25.093 1.0346 25.3592 1.0053 25.6187 1H25.704ZM26.55 2.7C26.3312 2.57187 26.0187 2.49937 25.625 2.50937C25.2313 2.51937 24.7563 2.61125 24.2125 2.81187C23.5918 3.03959 22.8986 3.39874 22.165 3.88397C21.6069 4.25373 21.0267 4.69585 20.4377 5.20843C20.1693 5.44206 19.8998 5.68964 19.6299 5.94928C20.6337 7.031 21.6339 8.28045 22.599 9.65481C24.2532 9.81 25.8333 10.0597 27.2886 10.3951C27.3444 10.1593 27.3941 9.92967 27.4438 9.7C27.8375 7.8 27.8937 6.15 27.6875 4.92312C27.4813 3.70312 27.025 2.97187 26.55 2.7ZM11.475 2.54375H11.325C10.975 2.5525 10.6938 2.625 10.4875 2.74437C10.0437 3.00187 9.6125 3.68312 9.4125 4.82875C9.31609 5.39911 9.27694 6.06943 9.30505 6.81769C9.33405 7.57365 9.43178 8.40739 9.60624 9.29902C9.62154 9.37723 9.63743 9.45584 9.65388 9.53483C9.71164 9.81102 9.77696 10.0939 9.84984 10.3806C10.7285 10.1816 11.6537 10.0131 12.6129 9.87712C13.2382 9.78763 13.8789 9.71154 14.5312 9.65C15.5 8.2875 16.5062 7.04375 17.5187 5.95625C17.3438 5.785 17.1687 5.6225 16.9937 5.46625C15.55 4.17875 14.1438 3.30625 12.9812 2.8725C12.4 2.65625 11.8938 2.55562 11.475 2.54375ZM20.6363 9.51709C19.9554 8.61148 19.2683 7.77454 18.575 7.03125C17.8818 7.78063 17.1824 8.61114 16.4954 9.51652C17.1777 9.48468 17.8676 9.46819 18.5618 9.46819C19.2599 9.46819 19.9523 9.48492 20.6363 9.51709ZM46.95 22.8437V8.51875H52.7062C55.3312 8.51875 57.2 10.1937 57.2 12.8312C57.2 15.4125 55.4375 16.825 53.4813 17L57.35 22.8437H55.2438L51.5938 17.15H48.7375V22.8437H46.95ZM92.375 12.4687V9.63125H94V12.4687H96.125V13.8875H94V20.3312C94 21.1 94.375 21.6625 95.0625 21.6625C95.5 21.6625 95.9375 21.4687 96.125 21.2312L96.625 22.4312C96.25 22.8187 95.625 23.1 94.6875 23.1C93.1875 23.1 92.375 22.2187 92.375 20.675V13.8875H90.6875V12.4687H92.375ZM52.4938 10.1062H48.7375V15.5812H52.4938C54.1875 15.5812 55.35 14.4437 55.35 12.8312C55.35 11.225 54.1875 10.1062 52.4938 10.1062ZM21.177 11.0491C20.3223 10.9978 19.4476 10.9687 18.5562 10.9687C17.6713 10.9687 16.7988 10.9977 15.9455 11.0489C15.7506 11.0609 15.5566 11.0742 15.3635 11.0888C14.7737 11.9525 14.2029 12.8593 13.6605 13.7999C13.1195 14.738 12.6201 15.6868 12.1664 16.6314C12.6202 17.5738 13.1208 18.5216 13.6649 19.4614C13.884 19.8397 14.1079 20.2131 14.3361 20.5808C14.4639 20.7864 14.5927 20.9901 14.7224 21.1919C14.9385 21.5273 15.1578 21.8573 15.3799 22.1815C16.4158 22.2439 17.4767 22.2812 18.5562 22.2812C19.65 22.2812 20.725 22.2437 21.7687 22.1687C22.35 21.3 22.9125 20.3937 23.4562 19.45C24.0062 18.5062 24.5063 17.55 24.9625 16.6062C24.5063 15.675 24 14.7312 23.4562 13.7937C22.9128 12.8569 22.3445 11.9512 21.7574 11.0892C21.5649 11.0745 21.3714 11.0612 21.177 11.0491ZM10.2538 11.8304C11.2127 11.6148 12.2289 11.4394 13.2971 11.2987C13.3416 11.293 13.3863 11.2873 13.4309 11.2817C13.0623 11.8566 12.7062 12.4439 12.3562 13.05C12.0062 13.6562 11.6812 14.2625 11.3687 14.8625C11.3283 14.7679 11.2885 14.6735 11.2492 14.5792C10.8638 13.643 10.5307 12.7223 10.2538 11.8304ZM23.6922 11.2888C24.8133 11.4263 25.8845 11.6195 26.8813 11.8437C26.5824 12.8149 26.203 13.8233 25.7615 14.8566C25.4446 14.2554 25.1096 13.6493 24.757 13.0401C24.4105 12.4417 24.0548 11.8573 23.6922 11.2888ZM10.5063 16.6312C9.80625 15.1125 9.23125 13.6187 8.79375 12.2C8.47163 12.2913 8.15691 12.3864 7.85527 12.4851C7.76504 12.5151 7.67573 12.5455 7.58737 12.5763C6.81743 12.8448 6.12214 13.1439 5.51047 13.4611C4.7875 13.8373 4.18503 14.2374 3.71812 14.6375C2.91687 15.3236 2.55217 15.9773 2.50524 16.4828C2.50202 16.5206 2.50041 16.5582 2.50041 16.5954C2.50041 16.624 2.5014 16.6529 2.50339 16.6821C2.54339 17.2131 2.93993 17.936 3.81063 18.6812C4.73 19.4687 6.13125 20.25 7.90625 20.8562C8.1875 20.95 8.475 21.0437 8.76875 21.125C9.2125 19.6875 9.79375 18.175 10.5063 16.6312ZM58.4437 17.6437C58.4437 14.6375 60.5938 12.2125 63.5625 12.2125C66.6875 12.2125 68.5 14.6562 68.5 17.775V18.1812H60.1437C60.2687 20.1375 61.6437 21.7687 63.875 21.7687C65.0625 21.7687 66.25 21.2937 67.0625 20.4562L67.8125 21.5125C66.8125 22.5437 65.375 23.1 63.6875 23.1C60.6562 23.1 58.4437 20.8875 58.4437 17.6437ZM70.5625 13.9312C71.6875 12.7687 73 12.2125 74.6875 12.2125C76.875 12.2125 78.6875 13.2 78.6875 15.7125V22.8437H77.125V21.6625C76.25 22.6062 75.0625 23.1 73.6875 23.1C71.9375 23.1 70.0625 21.9187 70.0625 19.6625C70.0625 17.3437 71.9375 16.25 73.6875 16.25C75.0625 16.25 76.25 16.7 77.125 17.6687V15.8C77.125 14.4 76 13.6062 74.5 13.6062C73.25 13.6062 72.25 14.0562 71.3125 15.0437L70.5625 13.9312ZM81 17.6437C81 14.575 83.125 12.2125 86.1875 12.2125C88.0625 12.2125 89.1875 12.9812 90 14.0125L88.9375 15C88.25 14.0562 87.375 13.65 86.3125 13.65C84.0625 13.65 82.6875 15.3437 82.6875 17.6437C82.6875 19.9437 84.0625 21.6625 86.3125 21.6625C87.375 21.6625 88.25 21.2312 88.9375 20.3062L90 21.2937C89.1875 22.325 88.0625 23.1 86.1875 23.1C83.125 23.1 81 20.7375 81 17.6437ZM28.4144 21.0495C27.97 19.6431 27.3704 18.1477 26.6367 16.6027C27.3371 15.094 27.9137 13.6171 28.3458 12.2193C28.7013 12.3254 29.0506 12.4377 29.3813 12.55C31.0938 13.1375 32.4562 13.875 33.35 14.625C34.2375 15.3687 34.6125 16.0812 34.6125 16.5937C34.6125 17.1375 34.2125 17.9 33.2562 18.6875C32.2937 19.475 30.8375 20.2562 29 20.8687L29 20.8688C28.8068 20.9311 28.6137 20.9934 28.4144 21.0495ZM16.6133 19.0533C17.1484 19.4781 17.8255 19.7318 18.5618 19.7318C20.2939 19.7318 21.6982 18.3276 21.6982 16.5954C21.6982 14.8632 20.2939 13.459 18.5618 13.459C16.9135 13.459 15.5622 14.7304 15.4351 16.3461C15.4285 16.4282 15.4251 16.5108 15.425 16.5937C15.4249 16.7458 15.4359 16.8967 15.4574 17.0454C15.5537 17.7097 15.8615 18.3299 16.3412 18.8106C16.4275 18.8972 16.5184 18.9781 16.6133 19.0533ZM66.9375 17C66.875 15.4562 65.875 13.5437 63.5 13.5437C61.325 13.5437 60.225 15.4125 60.1437 17H66.9375ZM77.125 18.6937C76.5 17.8375 75.375 17.4062 74.25 17.4062C72.75 17.4062 71.6875 18.35 71.6875 19.6875C71.6875 20.9937 72.75 21.9375 74.25 21.9375C75.375 21.9375 76.5 21.5125 77.125 20.65V18.6937ZM26.95 21.4312C26.6381 20.4456 26.239 19.4101 25.7776 18.3497C25.4576 18.9663 25.1192 19.585 24.763 20.2028C24.4099 20.8149 24.0507 21.41 23.6868 21.9868C24.8348 21.8494 25.9329 21.6621 26.95 21.4312ZM10.233 21.4941C10.543 20.4937 10.9246 19.4541 11.3703 18.3968C11.6823 19.002 12.0131 19.6072 12.3625 20.2125C12.7188 20.825 13.0875 21.425 13.4625 22.0125C12.3257 21.8876 11.2388 21.7127 10.233 21.4941ZM19.7975 27.4686C19.7558 27.4285 19.7141 27.3881 19.6724 27.3473C20.6618 26.2651 21.6506 25.0071 22.6157 23.61C24.3101 23.4596 25.9111 23.214 27.3635 22.8788C27.438 23.165 27.5002 23.4512 27.5562 23.725C27.9187 25.5625 27.9438 27.1687 27.725 28.3562C27.5063 29.55 27.0375 30.2687 26.575 30.5375C26.125 30.8 25.3375 30.8437 24.2687 30.4687C23.3771 30.1507 22.3245 29.5585 21.2162 28.696C20.9976 28.5255 20.7768 28.3447 20.5547 28.1535C20.3036 27.9375 20.051 27.7089 19.7975 27.4686ZM14.559 23.6289C15.5332 25.0024 16.551 26.2573 17.5688 27.35C17.3438 27.5687 17.125 27.775 16.9 27.9687C15.4937 29.2 14.1125 30.025 12.975 30.425C11.8313 30.8312 10.975 30.7875 10.5125 30.5187C10.0625 30.2625 9.63125 29.6 9.41875 28.4875C9.41401 28.4619 9.4094 28.4362 9.4049 28.4102C9.21256 27.2884 9.24787 25.8104 9.57073 24.1099C9.64268 23.7311 9.7283 23.342 9.82699 22.9442C10.7694 23.1535 11.7664 23.3214 12.8044 23.4494C13.3744 23.5204 13.9599 23.5803 14.559 23.6289ZM20.6696 23.7386C19.9901 24.6607 19.3044 25.5083 18.6187 26.2687C17.9129 25.5067 17.2008 24.6572 16.5074 23.7453C17.1797 23.7717 17.8652 23.7852 18.5618 23.7852C19.2734 23.7852 19.977 23.7692 20.6696 23.7386Z" fill="black"/>
</svg>
