<svg viewBox="0 0 26 26">
    <path
        d="M1.863 0C.838 0 0 .836 0 1.857v22.286C0 25.164.838 26 1.863 26h22.212c-.372-.378-4.337-4.464-4.393-4.52-.33.124-.683.187-1.055.187-1.714 0-3.105-1.387-3.105-3.096 0-1.708 1.391-3.095 3.105-3.095s3.104 1.387 3.104 3.095c0 .372-.062.724-.186 1.052.03.031 4.089 4.192 4.455 4.557V1.857C26 .836 25.162 0 24.137 0h-7.432l-6.337 6.377c.125.328.187.68.187 1.052 0 1.708-1.39 3.095-3.104 3.095-1.714 0-3.105-1.387-3.105-3.095 0-1.709 1.391-3.096 3.105-3.096.372 0 .726.063 1.055.187.03-.031 4.07-4.149 4.437-4.52H1.863zm16.764 4.333c1.714 0 3.104 1.387 3.104 3.096 0 1.708-1.39 3.095-3.104 3.095-.373 0-.726-.063-1.055-.186l-7.204 7.182c.125.328.187.68.187 1.051 0 1.709-1.39 3.096-3.104 3.096-1.714 0-3.105-1.387-3.105-3.096 0-1.708 1.391-3.095 3.105-3.095.372 0 .726.063 1.055.186l7.203-7.182c-.124-.328-.187-.68-.187-1.051 0-1.709 1.391-3.096 3.105-3.096zM7.45 6.19c-.686 0-1.242.555-1.242 1.239 0 .683.556 1.238 1.242 1.238.686 0 1.242-.555 1.242-1.238 0-.684-.556-1.239-1.242-1.239zm11.176 0c-.686 0-1.242.555-1.242 1.239 0 .683.556 1.238 1.242 1.238.686 0 1.242-.555 1.242-1.238 0-.684-.556-1.239-1.242-1.239zM7.45 17.333c-.686 0-1.242.555-1.242 1.238 0 .684.556 1.239 1.242 1.239.686 0 1.242-.555 1.242-1.239 0-.683-.556-1.238-1.242-1.238zm11.176 0c-.686 0-1.242.555-1.242 1.238 0 .684.556 1.239 1.242 1.239.686 0 1.242-.555 1.242-1.239 0-.683-.556-1.238-1.242-1.238z"
    />
</svg>
